<?xml version="1.0" standalone="no"?>
<!DOCTYPE svg PUBLIC "-//W3C//DTD SVG 1.1//EN" "http://www.w3.org/Graphics/SVG/1.1/DTD/svg11.dtd" >
<svg xmlns="http://www.w3.org/2000/svg">
<metadata>Generated by IcoMoon</metadata>
<defs>
<font id="auto" horiz-adv-x="1024">
<font-face units-per-em="1024" ascent="960" descent="-64" />
<missing-glyph horiz-adv-x="1024" />
<glyph unicode="&#x20;" horiz-adv-x="512" d="" />
<glyph unicode="&#xe900;" glyph-name="star" horiz-adv-x="1072" d="M499.042 935.328c6.971 14.079 21.325 23.005 37.015 23.005s30.068-8.926 37.015-23.005l132.762-269.044c6.005-12.17 17.645-20.612 31.103-22.568l296.903-43.134c15.575-2.255 28.457-13.159 33.312-28.089s0.805-31.356-10.444-42.306l-214.822-209.438c-9.731-9.478-14.171-23.143-11.894-36.532l50.703-295.73c2.622-15.505-3.704-31.149-16.449-40.397-12.722-9.202-29.539-10.421-43.48-3.151l-265.57 139.641c-12.008 6.326-26.387 6.326-38.419 0l-265.57-139.617c-13.895-7.293-30.757-6.096-43.48 3.128s-19.071 24.891-16.426 40.397l50.703 295.73c2.3 13.389-2.163 27.054-11.894 36.532l-214.822 209.438c-11.249 10.973-15.298 27.376-10.444 42.306s17.76 25.835 33.335 28.089l296.949 43.134c13.435 1.956 25.075 10.398 31.080 22.591l132.831 269.021z" />
<glyph unicode="&#xe901;" glyph-name="calendar" d="M373.086 395.064c0 12.827-10.405 23.22-23.243 23.22h-81.108c-12.823 0-23.23-10.392-23.23-23.22v-81.097c0-12.844 10.407-23.24 23.23-23.24h81.108c12.838 0 23.243 10.396 23.243 23.24v81.097zM575.785 395.064c0 12.827-10.407 23.22-23.22 23.22h-81.118c-12.823 0-23.23-10.392-23.23-23.22v-81.097c0-12.844 10.407-23.24 23.23-23.24h81.118c12.813 0 23.22 10.396 23.22 23.24v81.097zM778.495 395.064c0 12.827-10.407 23.22-23.23 23.22h-81.108c-12.838 0-23.243-10.392-23.243-23.22v-81.097c0-12.844 10.405-23.24 23.243-23.24h81.108c12.823 0 23.23 10.396 23.23 23.24v81.097zM373.086 192.344c0 12.848-10.405 23.232-23.243 23.232h-81.108c-12.823 0-23.23-10.384-23.23-23.232v-81.083c0-12.836 10.407-23.23 23.23-23.23h81.108c12.838 0 23.243 10.396 23.243 23.23v81.083zM575.785 192.344c0 12.848-10.407 23.232-23.22 23.232h-81.118c-12.823 0-23.23-10.384-23.23-23.232v-81.083c0-12.836 10.407-23.23 23.23-23.23h81.118c12.813 0 23.22 10.396 23.22 23.23v81.083zM778.495 192.344c0 12.848-10.407 23.232-23.22 23.232h-81.118c-12.838 0-23.243-10.384-23.243-23.232v-81.083c0-12.836 10.405-23.23 23.243-23.23h81.118c12.813 0 23.22 10.396 23.22 23.23v81.083zM923.524 845.981v-123.87c0-55.988-45.42-101.105-101.399-101.105h-63.965c-55.984 0-102.005 45.117-102.005 101.105v124.314h-288.309v-124.314c0-55.988-46.020-101.105-101.995-101.105h-63.978c-55.977 0-101.395 45.117-101.395 101.105v123.87c-48.925-1.475-89.127-41.958-89.127-91.718v-725.935c0-50.695 41.090-92.331 91.785-92.331h817.728c50.62 0 91.785 41.721 91.785 92.331v725.935c0 49.76-40.2 90.243-89.125 91.718zM893.814 73.534c0-21.908-17.763-39.682-39.68-39.682h-686.015c-21.917 0-39.68 17.774-39.68 39.682v374.971c0 21.917 17.761 39.691 39.68 39.691h686.013c21.917 0 39.68-17.774 39.68-39.691l0.002-374.971zM201.648 687.413h63.271c19.205 0 34.776 15.548 34.776 34.753v203.069c0 19.207-15.571 34.765-34.776 34.765h-63.271c-19.207 0-34.776-15.559-34.776-34.765v-203.069c0-19.205 15.569-34.753 34.776-34.753zM757.346 687.413h63.271c19.192 0 34.763 15.548 34.763 34.753v203.069c0.002 19.207-15.569 34.765-34.763 34.765h-63.271c-19.202 0-34.774-15.559-34.774-34.765v-203.069c0-19.205 15.571-34.753 34.774-34.753z" />
<glyph unicode="&#xe902;" glyph-name="calendar-page" d="M245.297 712.007h46.56c17.098 0 30.975 10.917 30.975 24.595v198.868c0 13.613-13.745 24.53-30.975 24.53h-46.56c-17.098 0-31.040-10.982-31.040-24.53v-198.868c0-13.679 13.942-24.595 31.040-24.595zM732.077 712.007h46.495c17.296 0 30.975 10.917 30.975 24.595v198.868c0 13.613-13.679 24.53-30.975 24.53h-46.495c-17.098 0-30.975-10.982-30.975-24.53v-198.868c0.066-13.679 13.876-24.595 30.975-24.595zM970.074 865.104h-123.372v-152.308c0-34-30.58-61.686-68.197-61.686h-46.495c-37.617 0-68.262 27.686-68.262 61.686v152.308h-303.826v-152.308c0-34-30.58-61.686-68.262-61.686h-46.363c-37.485 0-68.197 27.686-68.197 61.686v152.308h-123.438c-20.518 0-37.222-16.77-37.222-37.354v-854.528c0-20.584 16.704-37.222 22.82-37.222h916.609c34.855 0 51.69 16.638 51.69 37.222v854.66c-0.066 20.452-16.901 37.222-37.485 37.222zM950.082 20.44c0-37.090-31.961-33.868-31.961-33.868h-334.143c0 0 204.327 102.393 366.104 247.796 0 0 0-171.050 0-213.928zM957.119 336.959c-14.008-55.307-44.982-119.36-101.473-77.469-82.336 60.963-163.488 112.718-173.944-9.864-8.615-103.248-199.46-243.653-241.022-272.983h-362.224c-6.511 0-11.64 5.195-11.64 11.64v526.764c0 6.511 5.195 11.706 11.64 11.706h867.023c6.379 0 11.706-5.195 11.706-11.706l-0.066-178.087zM214.257 435.867h144.811v-144.745h-144.811v144.745zM452.451 435.867h144.679v-144.745h-144.679v144.745zM214.257 216.283h144.811v-144.745h-144.811v144.745zM452.451 71.538h41.891c30.58 28.673 76.812 76.088 102.788 108.641v36.104h-144.679v-144.745zM683.017 367.604c14.599 14.271 32.158 18.611 47.941 18.611 29.791 0 62.607-16.638 96.738-39.195v88.846h-144.679v-68.262z" />
<glyph unicode="&#xe903;" glyph-name="oil" horiz-adv-x="1511" d="M1511.008 599.076c0-1.258 0-2.794 0-4.070-12.18-11.684-24.886-22.853-36.552-35.033-24.886-25.636-24.624-25.899-55.852-6.601-12.957 7.861-27.925 23.611-38.839 21.061-28.187-6.601-59.919-8.638-80.215-36.298-79.723-108.155-160.703-215.278-240.409-323.677-22.599-30.963-48.479-56.097-86.324-66.52-209.688 0-419.398 0-629.076 0-47.211 19.558-58.644 36.814-58.644 89.363 0 27.419 0.506 55.080 0 82.499-0.506 43.153-16.5 65.995-56.618 81.486-58.381 22.336-116.519 44.933-175.173 66.258-23.611 8.638-42.403 21.324-53.318 44.691 0 10.92 0 22.076 0 32.996 18.022 67.533 35.801 135.048 53.815 202.833 1.258 0 2.794 0 4.070 0 6.095-2.794 12.18-6.095 18.536-8.638 95.206-35.801 190.41-72.106 286.101-106.879 14.984-5.339 20.573-12.697 19.558-28.187-0.769-11.16 1.017-22.599 1.519-33.773 52.042 0 101.291 0 149.789 0 0 25.376 0 49.252 0 75.408-24.118 0-46.716 0-69.051 0 0 30.963 0 59.657 0 87.831 81.749 0 161.453 0 243.708 0 0-28.677 0-56.355 0-86.324-26.395 0-52.305 0-78.186 0 0-26.153 0-49.754 0-76.665 47.211 0 93.414-2.794 139.365 0.769 39.102 3.057 68.032-8.383 89.1-40.617 8.638-13.447 18.779-13.447 33.251-9.133 169.067 51.78 338.155 102.565 507.23 154.101 13.447 4.070 22.336 2.282 32.756-7.37 25.899-23.873 52.795-46.453 79.46-69.559zM290.154 469.342c0 21.061 0 39.597 0 58.134 0 46.193 0 46.193-43.416 62.451-35.539 13.197-70.833 26.395-106.369 39.35-27.173 9.898-34.526 5.579-40.617-21.586-2.282-10.146-4.82-20.048-7.108-29.95-7.108-29.457-4.559-34.263 23.349-44.428 36.055-13.197 72.348-26.395 108.406-39.597 21.061-8.383 42.14-15.734 65.752-24.361zM1442.967 480.772c-7.108-4.82-15.734-8.12-20.573-14.462-18.536-24.624-37.315-49.004-52.795-75.648-19.035-32.996-15.734-68.807-3.057-103.578 8.12-22.599 23.1-39.597 47.988-43.416 26.153-3.807 46.971 7.861 62.694 27.925 26.912 34.263 28.187 79.969 2.532 119.323-17.272 26.649-37.315 51.53-30.714 87.074-2.035 1.017-4.070 2.035-6.095 2.794z" />
<glyph unicode="&#xe904;" glyph-name="balance" horiz-adv-x="1047" d="M286.743 546.426c0-11.742 0-21.832 0-33.023 43.664 0 86.778 0 131.174 0 0.55 5.137 1.284 10.273 1.284 15.594 0 33.757 0 67.514-0.183 101.271 0 2.202-0.183 4.587 0 6.788 0.917 16.696 9.724 25.318 26.601 25.501 19.263 0.183 38.711 0 57.974 0 4.403 0 8.623 0.55 14.493 0.917 0 6.055 0 10.823 0 15.594 0 50.819 0 101.637-0.368 152.456-0.183 20.548 3.302 40.545 13.392 58.523 21.281 37.977 54.305 58.341 97.785 58.891 69.349 0.917 138.513 0.183 207.862 0.183 31.554 0 62.926 0 94.483 0 50.452-0.183 90.996-27.152 108.243-73.935 4.953-13.577 7.154-28.987 7.154-43.48 0.368-206.395 0.183-412.971 0.183-619.549 0-51.737-0.183-103.472 0-155.208 0.183-43.848-18.713-77.054-55.039-100.538-18.162-11.742-38.711-16.144-60.359-15.961-72.468 0-144.934 0-217.218 0-27.519 0-54.855 0.183-82.374 0-63.294-0.733-113.93 49.534-114.113 110.443-0.183 54.488 0 108.793 0 163.281 0 3.119 0 6.238 0 10.823-4.22 0.55-7.889 1.284-11.742 1.284-17.98 0.183-35.958 0.917-53.938-0.183-25.684-1.468-34.123 11.191-33.39 33.94 0.917 33.207 0.183 66.596 0.183 99.803 0 4.77 0 9.724 0 15.594-5.504 0.55-9.357 1.284-13.209 1.284-102.555 0-205.109-0.183-307.665-0.183-19.998 0-27.337 7.704-27.337 27.887 0 26.601 0.368 53.021-0.183 79.622-0.183 11.374 3.119 20.18 14.677 27.887 38.893 0 79.622 0 120.534 0 4.77 11.558 2.386 22.015 2.202 33.757-5.504 0.368-9.907 0.917-14.127 0.917-26.052 0-52.103-0.183-78.338 0-17.612 0.183-26.969 11.558-24.033 27.887 1.834 10.273 9.173 15.043 18.345 17.612 27.702 7.522 55.404 14.861 83.109 22.382 4.77 1.284 9.173 3.119 14.493 4.953 0 5.32 0 9.907 0 16.328-4.403-0.368-8.256-0.183-11.742-1.101-22.933-6.238-45.682-12.843-68.615-19.080-4.22-1.101-8.807-1.651-13.392-1.651-11.558-0.183-19.63 6.055-21.832 15.961-2.751 12.659 1.834 22.933 13.76 27.337 12.659 4.403 25.868 7.522 38.711 11.191 19.447 5.504 38.893 10.823 58.341 16.328 1.651 0.55 3.119 1.468 5.688 2.751-0.183 5.137-0.55 10.273-0.917 16.879-13.76-3.487-25.868-6.421-37.792-9.724-16.328-4.587-32.655-9.54-48.984-14.127-10.641-3.119-24.033 3.302-28.070 13.209-4.587 11.008-0.368 23.482 10.273 28.803 5.137 2.569 10.823 4.22 16.328 5.688 28.987 7.889 57.974 15.594 88.062 23.667 0 6.421 0 12.292 0 19.63-10.458-2.936-19.814-5.504-29.171-8.072-19.080-5.137-38.16-10.273-57.24-15.043-13.942-3.487-26.235 2.936-28.987 14.493-3.487 14.31 4.587 26.235 19.63 30.088 24.768 6.421 49.351 13.577 73.935 20.18 7.154 2.018 14.493 3.669 22.199 5.504 0 6.238 0 11.008 0 16.696-3.669 0-7.339 0.733-10.458-0.183-22.933-6.238-45.682-13.026-68.615-19.263-8.623-2.386-17.98-4.22-26.235 0.55-8.623 4.77-12.108 12.843-11.008 22.749 1.101 9.724 6.606 15.778 15.411 18.345 19.447 5.688 38.893 10.641 58.523 15.961 9.357 2.569 18.53 5.137 30.271 8.256-7.889 4.587-14.127 3.669-19.998 3.669-20.18-0.183-40.545-0.733-60.725-0.55-15.594 0.183-24.768 10.090-23.667 24.768 0.733 9.907 5.87 16.879 15.778 19.447 5.137 1.284 10.641 1.468 15.961 1.468 29.72 0.183 59.259 0 88.429 0 25.868 23.667 42.38 25.684 69.532 0 3.302 0 8.256 0 13.209 0 25.684 0 51.369 0 76.871 0 3.119 0 6.238 0.183 9.357-0.183 11.924-1.101 21.649-10.458 22.566-21.464 0.917-9.907-5.688-19.998-16.879-23.299-14.493-4.587-29.354-8.256-44.030-12.292-18.53-5.137-37.059-10.090-55.772-15.043 0-6.421 0-11.558 0-18.345 12.108 3.119 22.749 5.688 33.39 8.623 15.594 4.22 31.006 8.807 46.599 13.026 4.22 1.101 8.807 1.834 13.209 1.834 11.924 0 20.914-7.522 22.933-18.713 1.834-9.724-4.22-21.281-14.493-24.951-11.742-4.22-24.033-7.339-36.142-10.641-21.649-5.688-43.48-11.191-65.862-17.061 0-6.055 0-11.742 0-18.897 14.127 3.669 26.969 6.788 39.812 10.273 15.227 4.035 30.271 8.439 45.314 12.659 13.76 3.852 25.868-2.018 30.271-14.861 3.852-10.823-2.018-22.933-14.493-28.253-7.339-3.119-15.227-4.953-23.117-6.971-25.134-6.606-50.452-13.026-77.604-19.998-0.368-5.32-0.733-11.558-1.284-19.63 11.742 3.119 21.099 5.688 30.638 8.072 19.447 4.953 38.893 10.458 58.708 14.861 13.942 3.119 25.134-4.035 27.887-16.511 2.569-11.008-4.77-23.482-17.061-26.969-28.435-7.889-57.24-15.227-85.86-22.749-4.22-1.101-8.439-2.751-13.209-4.403 0-5.688 0-10.823 0-17.612 34.673 5.504 66.596 19.447 98.703 23.299 17.429-10.641 21.281-20.548 15.227-33.207-3.487-7.154-9.357-10.641-16.696-12.476-27.337-6.971-54.855-13.76-82.191-20.731-1.101-0.368-2.018-1.284-6.055-3.669 8.439-1.101 13.76-2.569 19.263-2.569 20.18 0 40.545 0.55 60.725 0.733 16.879 0.183 27.702-8.989 27.519-22.749 0-13.577-11.374-22.749-27.887-22.749-26.052 0-52.103 0-78.338 0-1.651 0-4.587-0.183-9.173-0.55zM594.592 698.699c4.953-3.119 9.173-5.688 13.392-8.256 11.191-6.788 22.566-13.209 33.39-20.18 11.742-7.522 15.043-19.263 8.989-30.088-6.238-11.558-18.897-15.411-31.189-9.54-5.688 2.751-10.823 6.421-16.328 9.357-2.202 1.101-4.77 1.468-8.256 2.569 0-10.273 0-19.63 0-29.171 6.421-3.852 12.659-7.704 18.713-11.191 9.357-5.504 18.897-10.458 27.887-16.328 11.558-7.522 15.043-19.814 9.357-30.271-5.87-11.008-19.080-15.227-31.372-9.724-5.32 2.386-10.090 5.87-15.227 8.623-2.569 1.284-5.504 2.202-9.357 3.669 0-10.273 0-19.080 0-28.803 2.569-1.834 5.32-4.035 8.256-5.87 11.558-6.971 23.299-13.76 34.673-20.731 3.669-2.386 7.522-5.137 10.273-8.439 5.87-6.606 6.971-14.493 3.302-22.566-4.035-8.439-10.641-14.31-20.18-13.026-7.704 1.101-15.227 4.77-22.566 7.704-4.22 1.651-8.256 4.403-13.942 7.522 0-11.374 0-20.365 0-30.271 3.669-2.386 7.704-5.137 11.742-7.704 11.924-7.154 24.218-13.942 35.774-21.649 11.374-7.704 14.127-19.814 7.889-30.455-6.788-11.374-18.897-14.677-31.372-8.072-4.035 2.018-7.704 4.587-11.558 6.788-3.669 2.018-7.339 3.852-12.476 6.421 0-11.742 0-21.099 0-31.006 5.137-3.119 10.090-6.055 15.043-9.173 10.823-6.421 21.832-12.476 32.29-19.447 11.924-8.072 14.677-20.548 7.889-31.554-6.606-10.458-18.345-13.392-30.638-7.339-5.137 2.569-10.090 5.87-15.227 8.623-2.569 1.284-5.32 2.018-8.989 3.302 0-11.191 0-20.731 0-30.455 9.724-5.504 18.713-10.458 27.702-15.778 7.704-4.587 15.594-8.989 22.566-14.677 9.173-7.522 10.641-18.53 5.137-27.887-5.32-9.173-15.961-13.577-26.786-9.907-5.87 2.018-11.191 5.504-16.696 8.439-3.302 1.834-6.421 3.852-11.742 6.971 0-11.742 0-20.914 0-31.554 11.742-6.971 24.218-14.127 36.142-21.649 6.055-3.852 12.108-8.072 16.879-13.209 7.154-7.704 6.971-17.429 0.733-25.868-6.971-9.54-18.713-12.292-30.088-6.606-7.339 3.669-14.493 8.072-23.667 13.392 0-11.558 0-20.548 0-30.088 4.587-3.119 8.989-6.055 13.577-8.989 11.008-6.788 22.566-13.209 33.207-20.548 11.742-7.889 14.31-19.447 7.704-30.271-7.339-12.108-18.162-15.227-31.189-8.623-4.77 2.386-8.989 5.688-13.76 8.256-2.751 1.468-5.87 2.018-10.090 3.487 6.606-19.814 19.998-30.271 38.528-30.638 28.253-0.368 56.69-0.183 84.943-0.183 2.936 0 6.055 0.917 8.623 1.468 3.119 14.31 2.936 841.721-0.183 853.278-1.834 0.368-4.035 1.284-6.055 1.284-30.088 0-60.359 0-90.446-0.368-5.688 0-11.558-1.834-16.879-3.852-2.386-0.733-3.852-3.852-6.238-6.606 2.569-1.834 4.035-2.751 5.504-3.669 9.724-5.688 19.63-11.008 28.987-17.246 13.392-8.989 15.594-23.667 5.87-34.673-7.704-8.807-17.612-10.273-29.354-4.403-7.339 3.669-14.677 7.704-23.299 12.292 0-11.374 0-20.731 0-30.271 4.035-2.569 7.704-5.137 11.558-7.522 11.924-7.154 24.218-13.942 35.774-21.464 11.374-7.339 14.31-20.18 7.889-30.455-6.788-11.191-18.162-14.493-30.271-8.623-5.688 2.751-11.008 6.238-16.511 9.173-2.386 1.284-5.137 2.018-8.807 3.302 0.55-10.090 0.55-19.080 0.55-28.987zM970.321 643.478c-4.587-2.202-7.339-3.487-10.090-4.77-6.055-3.119-11.742-6.788-17.98-9.357-14.127-5.688-28.803 4.22-30.088 19.080-0.917 11.558 4.953 18.53 14.127 24.033 14.677 8.623 29.171 17.429 42.746 25.684 3.119 15.778 2.751 22.015-1.101 30.088-7.889-4.22-15.961-8.072-23.482-12.843-9.357-6.055-22.382-2.202-29.537 8.072-6.055 8.807-3.119 23.299 5.87 30.271 3.487 2.751 7.704 4.587 11.558 6.971 13.026 7.889 25.868 15.778 37.427 22.933 0 11.374 0 20.548 0 31.554-7.339-4.403-13.392-7.339-18.713-11.191-12.476-8.807-28.987-7.889-37.427 6.606-3.487 19.263-0.917 24.768 15.594 34.123 9.173 5.32 18.53 10.641 29.171 16.696-3.487 3.302-5.32 6.421-7.704 6.971-7.339 1.834-14.861 3.487-22.382 3.669-29.904 0.368-59.992 0.183-90.996 0.183 0-285.466 0-570.015 0-855.664 33.94 0 66.596-0.733 99.252 0.368 16.696 0.55 28.803 13.577 30.638 29.904-3.852-1.834-6.788-3.119-9.724-4.77-4.587-2.569-8.989-6.055-13.942-8.072-11.558-4.953-23.117-0.733-28.987 9.907-5.504 9.724-2.386 23.117 7.154 29.904 3.669 2.569 7.704 4.77 11.374 7.154 12.659 7.704 25.134 15.411 37.792 23.299 0 5.504 0 9.907 0 14.493-0.183 4.22-0.368 8.439-0.733 14.677-4.953-2.202-8.256-3.302-11.191-4.953-4.22-2.386-8.256-5.504-12.659-7.704-12.292-6.055-26.418-2.202-32.105 8.072s-1.834 24.583 9.357 31.739c9.907 6.238 20.18 11.742 30.271 17.795 6.055 3.669 11.558 7.889 17.246 11.742-1.468 10.090 2.386 19.080-2.751 28.253-3.302-1.651-6.055-2.936-8.623-4.403-5.137-2.936-9.724-6.421-15.043-8.807-12.108-5.137-25.868-0.917-30.638 8.989-5.137 10.273-1.468 23.85 8.989 30.821 8.989 5.87 18.53 11.008 27.887 16.511 6.421 3.852 12.843 7.889 19.447 11.742 0 10.090 0 19.263 0 30.088-4.22-1.651-6.971-2.569-9.54-3.852-5.137-2.751-10.090-6.055-15.227-8.439-12.659-5.688-24.768-2.569-30.821 7.339-5.87 9.907-2.386 24.768 8.439 32.105 9.724 6.421 20.18 11.924 30.088 17.795 5.688 3.302 11.374 6.971 17.429 10.641 0 9.907 0 19.080 0 29.537-3.487-1.101-6.055-1.651-8.072-2.751-5.504-3.119-10.641-6.788-16.144-9.724-12.843-6.606-25.318-3.487-31.739 7.704-5.87 10.273-2.386 24.583 8.807 31.739 11.742 7.522 23.85 14.31 35.774 21.464 4.22 2.569 7.889 5.504 10.823 7.522 0 10.273 0 19.080 0 30.088-8.989-4.953-15.961-9.357-23.482-13.209-8.623-4.403-17.246-4.587-25.684 0.733-12.292 8.072-12.659 30.271 2.386 38.711 12.843 7.339 25.684 14.861 38.343 22.566 3.302 2.018 6.238 4.77 7.889 6.055 0 10.641 0 19.263 0 29.904-5.32-2.936-8.623-4.953-12.108-6.788-5.137-2.751-10.090-6.055-15.594-7.889-16.879-5.504-30.821 5.87-29.904 23.482 0.55 9.907 6.788 15.227 14.493 19.63 14.31 8.439 28.62 16.696 43.48 25.318 0.368 9.54 0.368 18.713 0.368 30.455zM465.251 615.042c0-114.481 0-227.126 0-339.587 10.458-3.119 42.931-2.936 52.103 0.183 0 112.829 0 225.842 0 339.587-17.612-0.183-34.123-0.183-52.103-0.183zM773.834 871.521c0-285.649 0-569.098 0-854.196 5.32-0.368 9.907-0.733 15.778-1.284 0.55 5.688 1.101 10.090 1.101 14.31 0 115.947 0 232.079 0 348.027 0 159.612 0 319.224 0 479.019 0 4.77-0.917 9.357-1.651 15.411-5.688-0.368-9.907-0.733-15.227-1.284zM418.285 465.521c-12.292 3.487-288.768 3.302-301.427-0.183-0.183-13.392-1.834-27.519 0.733-40.911 2.751-0.917 4.035-1.651 5.32-1.651 95.767-0.183 191.534-0.183 287.301-0.183 1.834 0 3.487 0.55 5.32 0.917 0.368 0 0.917 0.368 1.101 0.55 0.368 0.183 0.55 0.733 2.018 2.202 0.917 12.292 1.651 25.868-0.368 39.261zM119.427 14.206c0.183 12.843-0.733 25.684 0.55 38.711 72.468 0 143.284 0 215.75 0 0-26.235 0-51.369 0-76.32 39.628 39.261 78.521 77.604 118.333 116.865-38.711 38.711-77.236 77.236-115.764 115.764-1.101-0.368-2.202-0.917-3.119-1.284 0-13.76 0-27.519 0-41.096 0-14.127 0-28.435 0-42.38-72.651 0-143.466 0-215.567 0 0 10.273 0 19.63 0 28.987s0.55 18.897-0.183 28.253c-0.55 8.989 2.569 18.162-2.018 28.435-39.628-39.628-77.971-78.155-117.415-117.6 40.178-39.628 79.072-77.971 119.434-117.965-0.183 14.31-0.183 26.969 0 39.628z" />
<glyph unicode="&#xe905;" glyph-name="power" horiz-adv-x="1136" d="M61.513 110.146c0-16.246 13.17-29.417 29.417-29.417h954.142c16.246 0 29.417 13.17 29.417 29.417v494.562h-1012.977v-494.562zM786.958 438.466c0 7.774 6.301 14.076 14.076 14.076h135.761c7.774 0 14.076-6.301 14.076-14.076v-33.353c0-7.774-6.301-14.076-14.076-14.076h-135.761c-7.774 0-14.076 6.301-14.076 14.076v33.353zM185.133 439.164c0 7.377 5.981 13.357 13.357 13.357h44.525v44.568c0 7.377 5.981 13.356 13.357 13.356h34.789c7.377 0 13.357-5.981 13.357-13.356v-44.568h44.525c7.377 0 13.357-5.981 13.357-13.357v-34.791c0-7.377-5.981-13.356-13.357-13.356h-44.525v-44.526c0-7.377-5.981-13.356-13.357-13.356h-34.789c-7.377 0-13.357 5.981-13.357 13.356v44.526h-44.525c-7.377 0-13.357 5.981-13.357 13.356v34.791zM1108.493 634.986c15.193 0 27.51 12.316 27.51 27.51v46.22c0 15.193-12.316 27.51-27.51 27.51h-153.504v51.534c0 15.193-12.316 27.51-27.51 27.51h-118.481c-15.193 0-27.51-12.316-27.51-27.51v-51.534h-416.211v51.534c0 15.193-12.316 27.51-27.51 27.51h-118.481c-15.193 0-27.51-12.316-27.51-27.51v-51.534h-164.268c-15.193 0.001-27.51-12.316-27.51-27.511v-46.221c0-15.193 12.316-27.51 27.51-27.51l1080.985 0.002z" />
<glyph unicode="&#xe906;" glyph-name="car-wheel" horiz-adv-x="1072" d="M536.002 960c-282.319 0-512.004-229.681-512.004-512s229.685-512 512.004-512c282.315 0 512 229.681 512 512s-229.689 512-512 512zM536.002 84.355c-200.84 0-363.649 162.806-363.649 363.645s162.81 363.645 363.649 363.645c200.832 0 363.645-162.806 363.645-363.645s-162.818-363.645-363.645-363.645zM536.002 764.567c-174.561 0-316.571-142.010-316.571-316.567s142.014-316.567 316.571-316.567c174.557 0 316.567 142.010 316.567 316.567s-142.014 316.567-316.567 316.567zM812.029 468.184h-153.601c-3.138 19.411-10.806 37.314-21.865 52.618l108.438 108.438c38.066-43.835 62.575-99.692 67.028-161.056zM555.864 724.055c61.328-4.373 117.164-28.789 161.023-66.747l-108.414-108.418c-15.304 11.055-33.202 18.719-52.61 21.857v153.307zM516.136 724.055v-153.303c-19.407-3.138-37.31-10.802-52.614-21.861l-108.418 108.414c43.86 37.958 99.704 62.378 161.031 66.751zM326.987 629.235l108.442-108.438c-11.059-15.3-18.723-33.202-21.861-52.61h-153.601c4.454 61.36 28.962 117.212 67.020 161.048zM259.923 428.46h153.649c3.134-19.407 10.802-37.31 21.861-52.614l-108.74-108.74c-38.026 43.94-62.462 99.901-66.771 161.353zM516.136 171.945c-61.493 4.385-117.462 28.918-161.377 67.048l108.764 108.764c15.304-11.059 33.206-18.723 52.614-21.861v-153.951zM516.136 366.762v-0.29c-8.573 2.084-16.619 5.471-23.949 9.953l0.189 0.189c-11.466 6.992-21.097 16.623-28.089 28.093l-0.185-0.185c-4.482 7.33-7.869 15.372-9.953 23.945h0.286c-1.549 6.377-2.458 13.007-2.458 19.862s0.913 13.485 2.458 19.862h-0.286c2.084 8.569 5.467 16.611 9.953 23.941l0.185-0.185c6.992 11.466 16.627 21.101 28.089 28.089l-0.189 0.189c7.33 4.482 15.376 7.873 23.949 9.953v-0.29c6.381 1.549 13.007 2.462 19.866 2.462s13.485-0.913 19.866-2.462v0.29c8.573-2.084 16.615-5.467 23.941-9.949l-0.189-0.189c11.47-6.988 21.101-16.623 28.093-28.089l0.185 0.185c4.486-7.33 7.873-15.376 9.957-23.949h-0.286c1.549-6.377 2.458-13.007 2.458-19.862s-0.913-13.485-2.458-19.862h0.286c-2.084-8.573-5.467-16.619-9.957-23.949l-0.185 0.185c-6.992-11.466-16.627-21.097-28.093-28.089l0.189-0.185c-7.326-4.482-15.368-7.869-23.941-9.953v0.29c-6.381-1.549-13.007-2.462-19.866-2.462s-13.485 0.909-19.866 2.462zM555.864 171.945v153.951c19.407 3.138 37.306 10.802 52.61 21.857l108.76-108.76c-43.912-38.131-99.881-62.663-161.369-67.048zM745.302 267.107l-108.736 108.736c11.059 15.304 18.723 33.206 21.865 52.618h153.645c-4.313-61.452-28.745-117.413-66.775-161.353z" />
<glyph unicode="&#xe907;" glyph-name="disc-brake" d="M544.792 894.417c-12.77 0-25.422-0.505-37.939-1.485v-99.552c0-24.322-19.022-44.442-43.302-45.804-32.654-1.832-64.181-9.464-93.705-22.684-29.594-13.252-56.403-31.775-79.684-55.053-23.279-23.279-41.802-50.089-55.055-79.684-13.22-29.523-20.853-61.049-22.684-93.703-1.362-24.281-21.482-43.303-45.804-43.303h-99.551c-0.98-12.518-1.486-25.171-1.486-37.941 0-264.661 214.55-479.208 479.209-479.208s479.208 214.55 479.208 479.207c0 264.661-214.548 479.21-479.208 479.21zM750.556 209.443c-54.962-54.961-128.035-85.229-205.765-85.229-77.728 0-150.802 30.269-205.765 85.229s-85.23 128.037-85.23 205.765c0 77.73 30.269 150.803 85.23 205.766s128.037 85.23 205.765 85.23 150.802-30.269 205.765-85.23 85.23-128.037 85.23-205.766c0-77.728-30.268-150.804-85.23-205.765zM544.792 650.242c-129.598 0-235.034-105.437-235.034-235.034s105.437-235.034 235.034-235.034c129.599 0 235.035 105.437 235.035 235.034s-105.438 235.034-235.035 235.034zM544.792 599.454c14.528 0 26.309-11.778 26.309-26.309 0-14.529-11.778-26.309-26.309-26.309s-26.309 11.778-26.309 26.309c0 14.529 11.778 26.309 26.309 26.309zM385.294 387.339c-14.528 0-26.309 11.777-26.309 26.31 0 14.527 11.778 26.308 26.309 26.308s26.309-11.777 26.309-26.308c0-14.532-11.778-26.31-26.309-26.31zM544.792 227.839c-14.529 0-26.309 11.78-26.309 26.31s11.777 26.31 26.309 26.31c14.529 0 26.309-11.78 26.309-26.31s-11.78-26.31-26.309-26.31zM544.792 331.23c-46.38 0-83.978 37.598-83.978 83.977 0 46.381 37.598 83.979 83.978 83.979s83.978-37.598 83.978-83.979c0-46.379-37.598-83.977-83.978-83.977zM730.597 413.649c0-14.529-11.777-26.31-26.309-26.31-14.529 0-26.308 11.777-26.308 26.31 0 14.527 11.777 26.308 26.308 26.308 14.532 0 26.309-11.781 26.309-26.308zM17.912 481.127h148.708c9.494 0 17.336 7.411 17.868 16.891 4.062 72.409 34.198 139.912 85.89 191.605 51.694 51.691 119.196 81.827 191.605 85.889 9.48 0.532 16.891 8.374 16.891 17.868v148.709c0 9.884-7.996 17.912-17.792 17.912-0.226 0-0.453-0.004-0.682-0.013-249.97-9.475-450.911-210.416-460.386-460.385-0.383-10.105 7.786-18.475 17.898-18.475z" />
<glyph unicode="&#xe908;" glyph-name="check" d="M642.711 960h-411.278c-60.088 0-108.988-48.904-108.988-108.986v-806.026c0-60.082 48.9-108.988 108.988-108.988h561.17c60.050 0 108.954 48.904 108.954 108.988v657.071l-258.846 257.941zM792.601 2.779h-561.167c-23.267 0-42.212 18.913-42.212 42.21v806.026c0 23.263 18.945 42.176 42.212 42.176l386.31 0.399v-142.76c0-41.74 33.842-75.618 75.578-75.618l139.884 0.399 1.574-630.626c0-23.292-18.915-42.205-42.178-42.205zM271.897 619.867h168.739c14.192 0 25.707 11.513 25.707 25.707v168.752c0 14.196-11.516 25.707-25.707 25.707h-168.739c-14.19 0-25.707-11.513-25.707-25.707v-168.752c0.002-14.194 11.518-25.707 25.707-25.707zM297.604 788.621h117.324v-117.337h-117.324v117.337zM271.897 337.892h168.739c14.192 0 25.707 11.513 25.707 25.705v168.752c0 14.196-11.516 25.709-25.707 25.709h-168.739c-14.19 0-25.707-11.513-25.707-25.709v-168.752c0.002-14.192 11.518-25.705 25.707-25.705zM297.604 506.644h117.324v-117.337h-117.324v117.337zM353.738 107.381h-56.134v117.339h117.324v-33.122l15.583-15.583 35.832 35.836v38.574c0 14.194-11.516 25.707-25.707 25.707h-168.739c-14.19 0-25.707-11.513-25.707-25.707v-168.752c0-14.194 11.516-25.705 25.707-25.705h138.812c-5.991 2.508-11.664 6.108-16.551 10.995l-40.419 40.417zM530.159 239.313l-99.647-99.647-39.5 39.498c-10.044 10.044-26.31 10.044-36.352 0-10.042-10.040-10.042-26.308 0-36.35l57.674-57.671c5.021-5.021 11.598-7.535 18.178-7.535 6.578 0 13.151 2.515 18.174 7.535l117.824 117.826c10.044 10.040 10.044 26.31 0 36.348-10.040 10.040-26.308 10.040-36.35-0.002z" />
<glyph unicode="&#xe909;" glyph-name="close-cross" horiz-adv-x="1072" d="M727.583 593.92c-0.479 11.615-4.799 23.135-13.697 32-8.863 8.865-20.385 13.215-32 13.697-12.927 0.544-26.015-3.808-35.87-13.697l-110.016-110.048-110.016 110.048c-9.887 9.889-22.943 14.209-35.872 13.697-11.615-0.48-23.135-4.8-32-13.697-8.863-8.865-13.215-20.385-13.697-32-0.544-12.929 3.808-25.983 13.697-35.872l110.016-110.048-110.016-110.016c-9.889-9.887-14.209-22.945-13.697-35.87 0.48-11.615 4.8-23.137 13.697-32 8.865-8.865 20.385-13.217 32-13.697 12.929-0.544 25.985 3.807 35.872 13.697l110.016 110.015 110.048-110.048c9.889-9.887 22.945-14.207 35.872-13.697 11.615 0.48 23.135 4.8 32 13.697 8.865 8.865 13.215 20.385 13.697 32 0.544 12.929-3.808 25.983-13.697 35.872l-110.048 110.048 110.015 110.016c9.89 9.887 14.241 22.943 13.697 35.904zM536 960c-282.751 0-512-229.249-512-512s229.249-512 512-512 512 229.249 512 512-229.249 512-512 512zM536 32c-229.376 0-416 186.624-416 416s186.624 416 416 416 416-186.624 416-416-186.624-416-416-416z" />
<glyph unicode="&#xe90a;" glyph-name="clock" d="M512 912c-255.851 0-464-208.149-464-464s208.149-464 464-464 464 208.149 464 464-208.149 464-464 464zM512 82.733c-201.405 0-365.278 163.852-365.278 365.267s163.873 365.267 365.278 365.267 365.278-163.852 365.278-365.267-163.873-365.267-365.278-365.267zM753.82 462.327h-208.524v250.719c0 21.097-17.106 38.203-38.203 38.203s-38.203-17.106-38.203-38.203v-288.927c0-21.097 17.106-38.203 38.203-38.203h246.728c21.097 0 38.203 17.106 38.203 38.203s-17.106 38.203-38.203 38.203z" />
<glyph unicode="&#xe90b;" glyph-name="locate" horiz-adv-x="1040" d="M856.049 705.136c-3.645 13.661-11.047 28.217-16.523 40.961-65.523 157.469-208.692 213.903-324.292 213.903-154.752 0-325.194-103.768-347.95-317.659v-43.699c0-1.824 0.629-18.206 1.521-26.4 12.756-101.935 93.19-210.27 153.262-312.205 64.628-109.213 131.69-216.648 198.131-324.037 40.968 70.080 81.789 141.082 121.824 209.349 10.911 20.034 23.577 40.056 34.5 59.179 7.28 12.732 21.189 25.465 27.543 37.311 64.626 118.322 168.649 237.558 168.649 354.982v48.239c0.002 12.73-15.777 57.331-16.665 60.076zM518.068 485.766c-45.489 0-95.281 22.746-119.857 85.562-3.662 9.999-3.366 30.038-3.366 31.874v28.217c0 80.079 67.995 116.496 127.147 116.496 72.823 0 129.145-58.262 129.145-131.085 0-72.82-60.245-131.063-133.068-131.063z" />
<glyph unicode="&#xe90c;" glyph-name="favorite" d="M742.4 916.48c-87.040 0-174.080-40.96-230.4-107.52-56.32 66.56-143.36 107.52-230.4 107.52-158.72 0-281.6-122.88-281.6-281.6 0-194.56 174.080-353.28 440.32-588.8l71.68-66.56 71.68 66.56c261.12 240.64 440.32 399.36 440.32 588.8 0 158.72-122.88 281.6-281.6 281.6zM517.12 117.76h-5.12l-5.12 5.12c-245.76 220.162-404.48 363.52-404.48 512 0 102.4 76.8 179.2 179.2 179.2 76.8 0 153.6-51.2 184.32-122.88h97.28c25.6 71.68 102.4 122.88 179.2 122.88 102.4 0 179.2-76.8 179.2-179.2 0-148.48-158.72-291.838-404.48-517.12z" />
<glyph unicode="&#xe90d;" glyph-name="interface" d="M921.6 960h-819.2c-56.32 0-102.4-46.080-102.4-102.4v-921.6l204.8 204.8h716.8c56.32 0 102.4 46.080 102.4 102.4v614.4c0 56.32-46.080 102.4-102.4 102.4zM204.8 601.6h614.4v-102.4h-614.4v102.4zM614.4 345.6h-409.6v102.4h409.6v-102.4zM819.2 652.8h-614.4v102.4h614.4v-102.4z" />
<glyph unicode="&#xe90e;" glyph-name="lines-menu" d="M91.428 649.145h841.14c50.493 0 91.432 40.935 91.432 91.428s-40.935 91.428-91.432 91.428h-841.14c-50.493-0.004-91.428-40.935-91.428-91.432 0-50.493 40.935-91.424 91.428-91.424zM932.568 539.43h-841.14c-50.493 0-91.428-40.935-91.428-91.428 0-50.497 40.935-91.428 91.428-91.428h841.14c50.493 0 91.432 40.931 91.432 91.428 0 50.493-40.939 91.428-91.432 91.428zM932.568 246.859h-841.14c-50.493 0-91.428-40.931-91.428-91.428 0-50.493 40.935-91.428 91.428-91.428h841.14c50.493 0 91.432 40.935 91.432 91.428 0 50.497-40.939 91.428-91.432 91.428z" />
<glyph unicode="&#xe90f;" glyph-name="search" d="M998.935 82.081l-222.458 222.454c-1.182 1.182-2.569 2.009-3.805 3.109 43.772 66.399 69.32 145.881 69.32 231.356 0 232.513-188.487 421-420.996 421s-420.996-188.487-420.996-420.996c0-232.505 188.483-420.996 420.992-420.996 85.479 0 164.956 25.548 231.356 69.32 1.1-1.231 1.923-2.618 3.105-3.8l222.462-222.462c33.418-33.414 87.598-33.414 121.020 0 33.414 33.418 33.414 87.598 0 121.016zM420.996 263.953c-151.911 0-275.054 123.144-275.054 275.050 0 151.911 123.148 275.054 275.054 275.054 151.902 0 275.050-123.148 275.050-275.054s-123.148-275.050-275.050-275.050z" />
<glyph unicode="&#xe910;" glyph-name="rocket" d="M295.108 618.508l-295.108-682.508 682.508 295.11-387.4 387.398zM128.274 64.274l31.45 72.736 8.936-55.274-40.386-17.462zM231.936 109.098l-22.936 141.872 66.952 154.838 41.958-259.536-85.974-37.174zM381.184 173.632l-50.968 315.256 109.72-109.72 27.22-168.362-85.972-37.174zM520.69 298.414l45.004-45.004-35.262-15.246-9.742 60.25zM549.297 532.555l136.159 136.159 47.255-47.255-136.159-136.159-47.255 47.255zM693.584 453.232c-46.812-10.666-89.1-33.852-122.3-67.052l47.256-47.256c54.482 54.484 131.878 62.636 184.408 46.544l19.574 63.902c-40.128 12.29-85.922 13.664-128.938 3.862zM513.366 758.524l-63.902-19.574c16.092-52.532 7.942-129.924-46.54-184.408l47.256-47.256c33.2 33.198 56.386 75.49 67.048 122.3 9.804 43.018 8.432 88.808-3.862 128.938zM893.25 749.576l-61.488 18.186-18.186 61.488-46.494-44.158-62.344 14.996 14.996-62.344-44.158-46.492 61.488-18.188 18.188-61.486 46.492 44.156 62.344-14.994-14.996 62.342zM1024 424.018l-61.488 18.184-18.186 61.49-46.494-44.158-62.342 14.994 14.994-62.344-44.156-46.492 61.486-18.186 18.188-61.486 46.494 44.154 62.342-14.994-14.996 62.344zM567.692 880.326l-61.49 18.186-18.184 61.488-46.494-44.158-62.344 14.996 14.994-62.342-44.158-46.494 61.49-18.188 18.184-61.486 46.494 44.156 62.344-14.994-14.994 62.342z" />
<glyph unicode="&#xe911;" glyph-name="people-1" d="M512 405.368c67.851 0 227.379 81.655 227.379 277.317 0 27.292-0.664 53.657-2.914 78.567-3.693 49.027-13.733 92.475-38.736 125.775-32.065 45.309-88.172 72.973-185.728 72.973-97.537 0-153.641-27.655-185.709-72.948-25.020-33.303-35.063-76.767-38.756-125.808-2.247-24.907-2.914-51.269-2.914-78.559 0-195.662 159.527-277.317 227.379-277.317zM586.219 858.404c-6.621-16.737-9.939-25.104-16.566-41.841-42.775 12.085-72.537 12.085-115.312 0-6.626 16.737-9.939 25.104-16.568 41.841 53.496 16.194 94.958 16.194 148.446 0zM318.45 725.109c2.618-5.732 13.747-27.759 30.974-29.824 19.803-2.374 52.672 70.132 162.576 70.307 109.901-0.177 142.773-72.68 162.576-70.307 17.227 2.067 28.356 24.095 30.974 29.824 0.534-14.040 0.728-28.251 0.728-42.424 0-95.642-42.23-154.901-77.659-187.77-44.637-41.417-94.199-56.45-116.62-56.45s-71.983 15.033-116.62 56.45c-35.429 32.87-77.659 92.129-77.659 187.77 0 14.172 0.194 28.384 0.728 42.424zM934.135 120.958c-11.607 72.18-35.505 165.158-83.441 198.205-32.721 22.559-146.894 83.559-195.645 109.606l-0.894 0.475c-5.574 2.978-12.381 2.379-17.353-1.522-25.549-20.056-53.533-33.573-83.177-40.171-5.237-1.167-9.534-4.888-11.438-9.903l-30.186-79.568-30.186 79.568c-1.904 5.015-6.202 8.738-11.438 9.903-29.644 6.598-57.628 20.115-83.177 40.171-4.972 3.904-11.779 4.503-17.353 1.522-48.189-25.751-163.794-88.014-196.399-109.985-55.181-37.178-79.307-171.711-83.582-198.303-0.425-2.638-0.18-5.335 0.712-7.855 1.342-3.786 25.149-65.34 155.64-104.495v67.21c0.006 28.848 23.479 52.318 52.324 52.318h213.415c28.842-0.003 52.31-23.473 52.31-52.324v-5.394h89.218l57.285 15.081c2.343 0.616 4.75 0.928 7.161 0.928 1.673 0 3.35-0.149 5.003-0.45l90.787-16.414c13.385-2.419 23.121-14.074 23.121-27.675v-11.154c79.070 36.759 95.473 79.248 96.578 82.372 0.897 2.52 1.142 5.22 0.717 7.855zM657.125 42.292h-120.982v33.519c0 13.362-10.825 24.196-24.185 24.199-0.003 0-0.006 0-0.008 0h-213.403c-13.362 0-24.196-10.834-24.199-24.199v-115.613c0-13.359 10.834-24.199 24.19-24.199 0.003 0 0.006 0 0.008 0h213.401c13.368 0 24.199 10.834 24.199 24.199v33.525l120.988-0.003 60.8-16.003 90.787 16.414v47.756l-90.787 16.414-60.809-16.009zM473.702-26.737l-136.912 0.003c-7.602 0-13.77 6.159-13.77 13.762 0 7.605 6.168 13.77 13.77 13.77h136.912c7.597 0 13.767-6.162 13.767-13.77-0.003-7.599-6.171-13.764-13.767-13.764zM473.699 35.213l-136.906-0.003c-7.605 0-13.773 6.159-13.773 13.77 0 7.602 6.162 13.767 13.773 13.762l136.909 0.003c7.597 0.003 13.767-6.162 13.767-13.767-0.003-7.602-6.165-13.764-13.77-13.764z" />
<glyph unicode="&#xe912;" glyph-name="people" d="M159.182 746.674c11.33-8.644 27.514-6.468 36.161 4.855 76.097 99.7 191.512 156.875 316.657 156.875s240.561-57.179 316.657-156.875c5.079-6.651 12.757-10.143 20.528-10.143 5.454 0 10.961 1.724 15.632 5.289 11.323 8.647 13.495 24.835 4.855 36.161-85.944 112.592-216.309 177.166-357.673 177.166s-271.729-64.574-357.669-177.166c-8.644-11.326-6.472-27.514 4.851-36.161zM786.229 609.061c0-44.425 36.147-80.572 80.572-80.572s80.572 36.147 80.572 80.572-36.147 80.572-80.572 80.572-80.572-36.143-80.572-80.572zM949.258 501.751c-0.186 0.062-20.487 6.292-20.487 6.292-7.351 2.245-15.336 0.862-21.49-3.744l-40.481-30.31-40.481 30.31c-6.158 4.61-14.146 5.992-21.49 3.744 0 0-20.301-6.23-20.487-6.292-32.665-10.892-54.61-41.339-54.61-75.769v-121.808c0-4.699 1.372-9.295 3.958-13.219l40.85-62.167v-163.261c0-13.298 10.778-24.076 24.076-24.076h136.371c13.298 0 24.076 10.778 24.076 24.076v163.261l40.85 62.167c2.582 3.927 3.958 8.523 3.958 13.219v121.808c0 34.43-21.949 64.877-54.613 75.769zM157.2 528.489c44.425 0 80.572 36.147 80.572 80.572s-36.147 80.572-80.572 80.572-80.575-36.143-80.575-80.572 36.147-80.572 80.575-80.572zM239.657 501.751c-0.186 0.062-20.487 6.292-20.487 6.292-7.354 2.245-15.332 0.862-21.49-3.744l-40.481-30.31-40.481 30.31c-6.154 4.61-14.146 5.992-21.49 3.744 0 0-20.301-6.23-20.487-6.292-32.665-10.892-54.61-41.339-54.61-75.769v-121.808c0-4.699 1.372-9.295 3.958-13.219l40.85-62.167v-163.261c0-13.298 10.778-24.076 24.076-24.076h136.368c13.298 0 24.076 10.778 24.076 24.076v163.261l40.85 62.167c2.582 3.927 3.958 8.523 3.958 13.219v121.808c0 34.43-21.949 64.877-54.61 75.769zM615.924 722.615c0 57.303-46.621 103.924-103.924 103.924s-103.924-46.621-103.924-103.924c0-57.306 46.621-103.924 103.924-103.924s103.924 46.618 103.924 103.924zM626.147 568.325l-0.172 0.055-29.662 9.102c-4.679 1.438-9.678-1.038-11.361-5.654l-62.371-171.132c-3.6-9.871-17.56-9.871-21.159 0l-62.371 171.132c-1.358 3.727-4.875 6.065-8.647 6.065-0.893 0-32.34-9.499-32.34-9.499-37.891-12.626-63.205-47.752-63.205-87.471v-181.031c0-1.796 0.528-3.555 1.514-5.058l65.081-99.035v-250.587c0-5.089 4.124-9.213 9.213-9.213h202.673c5.089 0 9.213 4.124 9.213 9.213v250.587l65.081 99.035c0.986 1.503 1.514 3.262 1.514 5.058v181.507c-0.003 39.546-25.417 74.614-62.998 86.926zM536.369 571.928c-2.576 2.807-6.344 4.22-10.157 4.22h-28.427c-3.81 0-7.578-1.414-10.157-4.22-3.989-4.348-4.568-10.626-1.738-15.532l15.195-22.907-7.113-60.009 14.008-37.264c1.365-3.748 6.665-3.748 8.033 0l14.008 37.264-7.113 60.009 15.195 22.907c2.834 4.906 2.255 11.185-1.734 15.532z" />
<glyph unicode="&#xe913;" glyph-name="transport" horiz-adv-x="1280" d="M872.146 234.406h-464.29l-48.323-117.397h89.523c-0.125 0.783-0.241 1.57-0.241 2.388v43.405c0 8.4 6.809 15.211 15.211 15.211 8.4 0 15.211-6.809 15.211-15.211v-43.405c0-0.818-0.115-1.603-0.241-2.388h146.034c-0.125 0.783-0.241 1.57-0.241 2.388v43.405c0 8.4 6.809 15.211 15.211 15.211 8.4 0 15.211-6.809 15.211-15.211v-43.405c0-0.818-0.115-1.603-0.241-2.388h146.034c-0.125 0.783-0.241 1.57-0.241 2.388v43.405c0 8.4 6.809 15.211 15.211 15.211s15.211-6.809 15.211-15.211v-43.405c0-0.818-0.115-1.603-0.241-2.388h89.523l-48.325 117.397zM1268.211 624.899c-3.031 8.818-13.766 15.678-22.727 15.678-38.806 0-77.613 0-116.418 0-8.963 0-19.699-6.863-22.727-15.678-4.164-12.123-6.827-22.4-8.049-32.158-51.206 98.596-107.911 208.337-107.911 208.337-5.577 15.583-19.043 26.995-35.326 29.94-104.883 18.971-210.873 28.587-315.022 28.587-104.145 0-210.158-9.617-315.079-28.587-16.282-2.942-29.755-14.357-35.331-29.938 0 0-56.704-109.743-107.911-208.337-1.223 9.754-3.885 20.034-8.049 32.158-3.028 8.818-13.762 15.678-22.723 15.678-38.804 0-77.613 0-116.418 0-8.961 0-19.697-6.863-22.73-15.678-11.79-34.325-11.78-53.977 0.002-88.306 3.031-8.818 13.766-15.678 22.727-15.678 38.733 0 77.467 0 116.198 0 0.025-1.451 0.107-2.897 0.269-4.341-24.504-7.434-42.344-30.182-42.344-57.113v-394.376c0-15.845 12.838-28.691 28.688-28.691h144.403c15.845 0 28.691 12.846 28.691 28.691v69.279h23.358l49.825 121.048c2.348 5.701 7.9 9.421 14.064 9.421h484.665c6.165 0 11.719-3.719 14.064-9.421l49.823-121.048h23.358v-69.279c0-15.845 12.846-28.691 28.691-28.691h144.403c15.845 0 28.688 12.846 28.688 28.691v394.376c0 26.932-17.839 49.679-42.344 57.113 0.162 1.445 0.243 2.89 0.269 4.341 38.731 0 77.464 0 116.198 0 8.961 0 19.697 6.857 22.73 15.678 11.787 34.325 11.78 53.977-0.006 88.303zM353.633 767.278c0 0 69.335 17.599 286.369 17.599s286.365-17.599 286.365-17.599l101.774-246.362h-776.277l101.77 246.362zM227.145 340.982v80.943h175.311l52.087-80.943h-227.399zM1052.854 340.982h-227.399l52.087 80.943h175.311v-80.943z" />
<glyph unicode="&#xe914;" glyph-name="people-2" horiz-adv-x="1168" d="M1148.595 335.584c-65.436 53.931-136.144 89.644-150.526 96.595-1.678 0.719-2.637 2.396-2.637 4.314v101.868c12.703 8.629 21.332 23.010 21.332 39.789v105.704c0 52.492-42.664 95.158-95.158 95.158h-22.531c-52.492 0-95.158-42.664-95.158-95.158v-105.704c0-16.538 8.389-31.16 21.332-39.789v-101.868c0-1.917-0.959-3.356-2.637-4.314-8.868-4.314-39.549-19.654-76.941-43.624 37.391-20.614 96.595-56.088 152.443-102.109 19.654-16.059 32.598-38.351 37.391-62.799h232.5v72.387c-0.719 15.34-7.43 29.961-19.415 39.549zM345.15 432.179c-1.678 0.719-2.637 2.396-2.637 4.314v101.868c12.703 8.629 21.332 23.010 21.332 39.789v105.704c0 52.492-42.664 95.158-95.158 95.158h-23.010c-52.492 0-95.158-42.664-95.158-95.158v-105.704c0-16.538 8.389-31.16 21.332-39.789v-101.868c0-1.917-0.959-3.356-2.637-4.314-14.381-6.951-85.091-42.664-150.526-96.595-11.745-9.828-18.696-24.209-18.696-39.549v-72.387h232.5c4.555 24.448 17.737 46.74 37.391 62.799 55.848 46.020 115.052 81.495 152.443 102.109-37.632 23.969-68.312 39.31-77.18 43.624zM867.917 250.494c-78.14 64.237-162.271 106.662-179.529 115.052-1.917 0.959-3.116 2.877-3.116 5.034v121.524c15.34 10.307 25.408 27.565 25.408 47.219v126.077c0 62.799-50.814 113.613-113.613 113.613h-27.086c-62.799 0-113.613-50.814-113.613-113.613v-126.077c0-19.654 10.067-37.152 25.408-47.219v-121.524c0-2.157-1.199-4.074-3.116-5.034-17.258-8.389-101.389-51.054-179.529-115.052-14.142-11.506-22.292-29.003-22.292-47.219v-86.288h266.297l26.366 120.564c-53.212 74.064 4.074 77.66 13.902 77.9v0 0c10.067 0 67.113-3.595 13.902-77.9l26.366-120.564h266.297v86.288c0.24 18.216-7.91 35.713-22.052 47.219z" />
<glyph unicode="&#xe915;" glyph-name="people-3" d="M295.342 648.901c6.638-87.181 41.312-49.603 48.465-87.807 11.893-63.505 68.118-109.436 103.117-125.301 20.419-9.251 41.446-13.893 63.554-14.264v-0.019c0.077 0 0.153 0.009 0.23 0.009s0.153-0.009 0.23-0.009v0.019c22.106 0.37 43.131 5.011 63.554 14.264 34.999 15.866 91.223 61.796 103.117 125.301 7.153 38.201 41.827 0.626 48.465 87.807 0 34.744-18.931 43.39-18.931 43.39s9.623 51.426 13.393 90.998c4.67 49.316-28.787 176.711-207.248 176.711-0.781 0-1.504-0.043-2.266-0.051-0.028 0-0.053 0-0.081 0.002v0.009c-0.077-0.002-0.153-0.004-0.23-0.004s-0.153 0.002-0.23 0.004v-0.011c-0.028-0.002-0.053-0.002-0.081-0.002-0.762 0.011-1.485 0.051-2.266 0.051-178.46 0-211.919-127.395-207.248-176.711 3.768-39.571 13.393-90.998 13.393-90.998s-18.936-8.644-18.936-43.388zM915.539 220.93c-90.015 45.793-220.484 102.989-226.746 105.008-0.070 0.026-0.123 0.030-0.191 0.051-3.662 1.304-7.598 2.028-11.71 2.028-15.293 0-28.265-9.796-33.078-23.448-0.026 0.017-0.051 0.028-0.077 0.045-23.234-55.988-65.911-155.79-92.411-203.914l-6.383 134.918c0 0 39.797 84.464 44.152 92.202 10.255 18.138 1.019 33.58-18.206 33.58-9.536 0-33.393 0-57.288 0-0.028 0-0.053 0-0.081 0-0.153 0-0.306 0-0.46 0-0.028 0-0.053 0-0.081 0-0.328 0-0.655 0-0.983 0s-0.655 0-0.983 0c-0.028 0-0.053 0-0.081 0-0.153 0-0.306 0-0.46 0-0.028 0-0.053 0-0.081 0-23.893 0-47.748 0-57.288 0-19.225 0-28.459-15.442-18.206-33.58 4.357-7.738 44.152-92.202 44.152-92.202l-6.381-134.918c-26.499 48.124-69.177 147.92-92.411 203.914-0.026-0.017-0.051-0.028-0.077-0.045-4.813 13.646-17.785 23.448-33.078 23.448-4.113 0-8.049-0.723-11.71-2.028-0.068-0.026-0.121-0.032-0.191-0.051-6.259-2.019-136.731-59.216-226.746-105.008-40.425-20.565-64.822-46.144-64.822-73.062 0-88.989 0-211.867 0-211.867h936.725c0 0 0 122.878 0 211.867-0.002 26.919-24.397 52.497-64.822 73.062z" />
<glyph unicode="&#xe916;" glyph-name="settings" d="M889.531 393.97c0 15.437 5.146 30.874 5.146 51.457s0 36.020-5.146 51.457l108.060 87.477c10.291 10.291 10.291 20.583 5.146 30.874l-102.915 180.1c-5.146 5.146-15.435 10.291-30.874 5.146l-128.643-51.457c-25.729 20.583-56.603 36.020-87.477 51.457l-20.583 133.789c5.146 15.437-10.293 25.729-20.583 25.729h-205.829c-10.293 0-25.729-10.291-25.729-20.583l-20.583-138.935c-30.874-10.291-56.603-30.874-87.477-51.457l-123.497 51.457c-15.437 5.146-25.729 0-36.022-10.291l-102.915-180.1c-5.146-5.146 0-20.583 10.291-30.874l108.060-82.332c0-15.437-5.146-30.874-5.146-51.457s0-36.020 5.146-51.457l-108.060-87.477c-10.291-10.293-10.291-20.583-5.146-30.876l102.915-180.1c5.146-5.146 15.435-10.291 30.874-5.146l128.643 51.457c25.729-20.583 56.603-36.020 87.477-51.457l20.583-133.789c0-10.291 10.291-20.583 25.729-20.583h205.829c10.293 0 25.729 10.293 25.729 20.583l20.583 133.789c30.874 15.437 61.749 30.874 87.477 51.457l128.643-51.457c10.293-5.146 25.729 0 30.876 10.293l102.915 180.1c5.146 10.291 5.146 25.729-5.148 30.874l-118.35 82.332zM508.747 265.327c-97.769 0-180.1 82.332-180.1 180.1s82.332 180.1 180.1 180.1 180.1-82.332 180.1-180.1-82.332-180.1-180.1-180.1z" />
<glyph unicode="&#xe917;" glyph-name="shape" d="M706.041 484.319l-144.681 144.661c-19.99 19.997-52.416 19.997-72.399 0h0.026c-19.983-19.957-19.983-52.389 0-72.373l57.349-57.394h-213.513c-28.255 0-51.193-22.931-51.193-51.193v-0.026c0-28.262 22.937-51.193 51.193-51.193h213.539l-57.375-57.388c-19.983-19.993-19.983-52.393 0-72.386 19.961-20.006 52.383-20.006 72.373 0l144.798 144.772c19.98 19.977 19.98 52.422 0 72.412-0.036 0.055-0.088 0.085-0.117 0.108zM767.951 891.344c-244.846 141.335-557.93 57.463-699.276-187.36-141.361-244.849-57.492-557.93 187.36-699.318 244.82-141.352 557.93-57.466 699.295 187.38 141.378 244.833 57.44 557.953-187.38 699.298zM866.639 243.248c-113.1-195.886-363.554-262.981-559.414-149.894-195.854 113.090-262.997 363.54-149.907 559.414 113.080 195.883 363.563 262.997 559.427 149.914 195.86-113.087 262.981-363.586 149.894-559.434z" />
<glyph unicode="&#xe918;" glyph-name="squares" d="M64 960h768v-128h-768v128zM64 448h832v-128h-832v128zM64 256h704v-128h-704v128zM64 64h896v-128h-896v128zM0 768v-256h1024v256h-1024zM704 576h-640v128h640v-128z" />
<glyph unicode="&#xe919;" glyph-name="technology" d="M901.139 919.804c-16.13 16.13-35.62 24.196-58.472 24.196h-661.333c-22.849 0-42.341-8.065-58.472-24.196s-24.196-35.62-24.196-58.472v-826.667c0-22.849 8.065-42.341 24.196-58.472s35.62-24.196 58.472-24.196h661.333c22.849 0 42.341 8.065 58.472 24.196s24.196 35.62 24.196 58.472v826.667c0 22.849-8.065 42.341-24.196 58.472zM346.667 117.333c0-10.754-4.033-20.163-12.098-28.228s-17.475-12.098-28.228-12.098h-82.667c-12.098 0-22.178 4.033-30.244 12.098s-12.098 17.475-12.098 28.228v20.163c0 12.098 4.033 22.178 12.098 30.244s18.146 12.098 30.244 12.098h82.667c10.754 0 20.163-4.033 28.228-12.098s12.098-18.146 12.098-30.244v-20.163zM346.667 282.667c0-10.754-4.033-20.163-12.098-28.228s-17.475-12.098-28.228-12.098h-82.667c-12.098 0-22.178 4.033-30.244 12.098s-12.098 17.475-12.098 28.228v20.163c0 12.098 4.033 22.178 12.098 30.244s18.146 12.098 30.244 12.098h82.667c10.754 0 20.163-4.033 28.228-12.098s12.098-18.146 12.098-30.244v-20.163zM346.667 448c0-10.754-4.033-20.163-12.098-28.228s-17.475-12.098-28.228-12.098h-82.667c-12.098 0-22.178 4.033-30.244 12.098s-12.098 17.475-12.098 28.228v20.163c0 12.098 4.033 22.178 12.098 30.244s18.146 12.098 30.244 12.098h82.667c10.754 0 20.163-4.033 28.228-12.098s12.098-18.146 12.098-30.244v-20.163zM594.667 117.333c0-10.754-4.033-20.163-12.098-28.228s-18.146-12.098-30.244-12.098h-80.65c-12.098 0-22.178 4.033-30.244 12.098s-12.098 17.475-12.098 28.228v20.163c0 12.098 4.033 22.178 12.098 30.244s18.146 12.098 30.244 12.098h80.65c12.098 0 22.178-4.033 30.244-12.098s12.098-18.146 12.098-30.244v-20.163zM594.667 282.667c0-10.754-4.033-20.163-12.098-28.228s-18.146-12.098-30.244-12.098h-80.65c-12.098 0-22.178 4.033-30.244 12.098s-12.098 17.475-12.098 28.228v20.163c0 12.098 4.033 22.178 12.098 30.244s18.146 12.098 30.244 12.098h80.65c12.098 0 22.178-4.033 30.244-12.098s12.098-18.146 12.098-30.244v-20.163zM594.667 448c0-10.754-4.033-20.163-12.098-28.228s-18.146-12.098-30.244-12.098h-80.65c-12.098 0-22.178 4.033-30.244 12.098s-12.098 17.475-12.098 28.228v20.163c0 12.098 4.033 22.178 12.098 30.244s18.146 12.098 30.244 12.098h80.65c12.098 0 22.178-4.033 30.244-12.098s12.098-18.146 12.098-30.244v-20.163zM842.667 117.333c0-10.754-4.033-20.163-12.098-28.228s-18.146-12.098-30.244-12.098h-82.667c-10.754 0-20.163 4.033-28.228 12.098s-12.098 17.475-12.098 28.228v20.163c0 12.098 4.033 22.178 12.098 30.244s17.475 12.098 28.228 12.098h82.667c12.098 0 22.178-4.033 30.244-12.098s12.098-18.146 12.098-30.244v-20.163zM842.667 282.667c0-10.754-4.033-20.163-12.098-28.228s-18.146-12.098-30.244-12.098h-82.667c-10.754 0-20.163 4.033-28.228 12.098s-12.098 17.475-12.098 28.228v20.163c0 12.098 4.033 22.178 12.098 30.244s17.475 12.098 28.228 12.098h82.667c12.098 0 22.178-4.033 30.244-12.098s12.098-18.146 12.098-30.244v-20.163zM842.667 448c0-10.754-4.033-20.163-12.098-28.228s-18.146-12.098-30.244-12.098h-82.667c-10.754 0-20.163 4.033-28.228 12.098s-12.098 17.475-12.098 28.228v20.163c0 12.098 4.033 22.178 12.098 30.244s17.475 12.098 28.228 12.098h82.667c12.098 0 22.178-4.033 30.244-12.098s12.098-18.146 12.098-30.244v-20.163zM842.667 633.496c0-10.754-4.033-20.163-12.098-28.228s-18.146-12.098-30.244-12.098h-576.65c-12.098 0-22.178 4.033-30.244 12.098s-12.098 17.475-12.098 28.228v165.333c0 12.098 4.033 22.178 12.098 30.244s18.146 12.098 30.244 12.098h576.65c12.098 0 22.178-4.033 30.244-12.098s12.098-18.146 12.098-30.244v-165.333z" />
<glyph unicode="&#xe91a;" glyph-name="tool" d="M367.659 784.073h288.653c73.347 0 133.016 59.667 133.016 133.014 0 5.644-4.576 10.22-10.214 10.22h-190.207c-8.133 19.594-27.291 32.693-49.047 32.693h-55.749c-21.758 0-40.912-13.101-49.045-32.693h-190.207c-5.64 0-10.216-4.576-10.216-10.22 0-73.342 59.672-133.014 133.016-133.014zM551.817 551.174h-256.69c-18.332 0-33.193-14.861-33.193-33.193s14.863-33.193 33.193-33.193h256.69c18.332 0 33.193 14.861 33.193 33.193s-14.861 33.193-33.193 33.193zM551.817 374.145h-256.69c-18.332 0-33.193-14.865-33.193-33.193 0-18.332 14.863-33.195 33.193-33.195h256.69c18.332 0 33.193 14.863 33.193 33.195 0 18.328-14.861 33.193-33.193 33.193zM551.817 197.117h-256.69c-18.332 0-33.193-14.861-33.193-33.193s14.863-33.193 33.193-33.193h256.69c18.332 0 33.193 14.861 33.193 33.193s-14.861 33.193-33.193 33.193zM728.846 551.174h-44.256c-18.332 0-33.195-14.861-33.195-33.193s14.863-33.193 33.195-33.193h44.256c18.332 0 33.195 14.861 33.195 33.193s-14.863 33.193-33.195 33.193zM728.846 374.145h-44.256c-18.332 0-33.195-14.865-33.195-33.193 0-18.332 14.863-33.195 33.195-33.195h44.256c18.332 0 33.195 14.863 33.195 33.195-0.002 18.328-14.863 33.193-33.195 33.193zM728.846 197.117h-44.256c-18.332 0-33.195-14.861-33.195-33.193s14.863-33.193 33.195-33.193h44.256c18.332 0 33.195 14.861 33.195 33.193s-14.863 33.193-33.195 33.193zM921.363 869.825c0 12.221-9.908 22.129-22.129 22.129h-59.003c-10.157 0-19.011-6.916-21.471-16.772-17.272-69.232-79.148-117.581-150.477-117.581h-312.594c-71.327 0-133.205 48.349-150.479 117.581-2.458 9.858-11.312 16.772-21.471 16.772h-59.003c-12.221 0-22.129-9.908-22.129-22.131v-911.694c0-12.221 9.906-22.129 22.129-22.129h774.526c5.868 0 11.498 2.332 15.649 6.482s6.482 9.778 6.482 15.646l-0.029 911.696zM830.634 55.494c0-12.223-9.908-22.129-22.127-22.129h-593.043c-12.221 0-22.129 9.908-22.129 22.129v563.556c0 12.221 9.908 22.129 22.129 22.129h593.045c12.223 0 22.129-9.908 22.129-22.129v-563.556h-0.004z" />
<glyph unicode="&#xe91b;" glyph-name="diploma" d="M272.147 717.943h256.11c13.256 0 24.011 10.754 24.011 24.011 0 13.261-10.754 24.011-24.011 24.011h-256.11c-13.261 0-24.011-10.75-24.011-24.011s10.75-24.011 24.011-24.011zM272.147 599.492h348.954c13.256 0 24.011 10.75 24.011 24.011 0 13.259-10.754 24.011-24.011 24.011h-348.954c-13.261 0-24.011-10.752-24.011-24.011 0-13.263 10.75-24.011 24.011-24.011zM174.722 887.968h543.804v-376.42c9.477-2.74 17.614-6.841 24.267-10.572 11.256 6.315 26.736 13.72 45.841 13.72 0.648 0 1.28-0.055 1.923-0.072v373.344c0 39.781-32.251 72.032-72.032 72.032h-543.804c-39.781 0-72.032-32.251-72.032-72.032v-802.654c0-39.781 32.251-72.032 72.032-72.032h436.189v72.032h-436.189v802.654zM901.414 333.355c-5.359 4.773-11.448 10.185-12.778 14.296-1.457 4.495 0.24 12.377 1.87 20.006 2.569 11.955 5.482 25.502-1.914 35.663-7.455 10.255-21.329 11.66-33.564 12.901-7.34 0.749-15.655 1.587-19.367 4.295-3.63 2.641-6.951 10.214-9.88 16.894-4.98 11.345-10.617 24.2-22.834 28.164-2.247 0.73-4.639 1.1-7.105 1.1-9.352 0-18.327-5.21-27.002-10.252-6.848-3.976-13.928-8.087-18.839-8.087-4.915 0-11.991 4.111-18.843 8.087-8.675 5.042-17.653 10.252-27.002 10.252-2.466 0-4.853-0.37-7.105-1.1-12.212-3.964-17.859-16.822-22.839-28.164-2.932-6.68-6.252-14.257-9.876-16.894-3.724-2.708-12.039-3.551-19.367-4.295-12.236-1.241-26.107-2.648-33.567-12.901-7.395-10.156-4.483-23.706-1.914-35.663 1.638-7.628 3.335-15.513 1.87-20.008-1.333-4.108-7.414-9.52-12.778-14.293-9.328-8.298-19.898-17.703-19.898-30.755 0-13.050 10.569-22.455 19.898-30.753 5.364-4.771 11.448-10.183 12.783-14.296 1.455-4.492-0.235-12.38-1.875-20.006-2.569-11.955-5.482-25.502 1.914-35.663 7.46-10.255 21.333-11.66 33.567-12.903 7.335-0.747 15.65-1.585 19.367-4.293 3.63-2.644 6.951-10.214 9.88-16.896 4.975-11.343 10.622-24.195 22.834-28.162 2.252-0.732 4.644-1.097 7.11-1.097 9.347 0 18.322 5.21 26.997 10.25 6.848 3.976 13.928 8.089 18.843 8.089 4.91 0 11.991-4.111 18.839-8.089 8.675-5.040 17.653-10.25 27.002-10.25 2.466 0 4.857 0.37 7.11 1.097 12.207 3.967 17.849 16.824 22.824 28.164 2.936 6.68 6.255 14.257 9.885 16.894 3.719 2.708 12.034 3.551 19.367 4.295 12.241 1.241 26.107 2.648 33.564 12.901 7.395 10.159 4.483 23.708 1.914 35.663-1.638 7.626-3.335 15.513-1.866 20.006 1.333 4.113 7.414 9.525 12.774 14.298 9.333 8.296 19.898 17.701 19.898 30.75 0 13.052-10.569 22.457-19.898 30.755zM749.997 240.247c-34.441 0-62.358 27.917-62.358 62.358 0 34.438 27.917 62.355 62.358 62.355 34.436 0 62.353-27.917 62.353-62.355 0-34.441-27.917-62.358-62.353-62.358zM808.59 122.252c-4.075-1.325-8.365-1.995-12.752-1.995-14.274 0-26.421 7.054-36.179 12.723-2.766 1.609-7.071 4.106-9.659 5.234-2.593-1.128-6.893-3.628-9.664-5.234-9.753-5.664-21.905-12.723-36.169-12.723v0c-4.389 0-8.68 0.67-12.759 1.993-12.053 3.914-19.758 12.123-25.261 20.959v-197.338c0-3.916 2.317-7.458 5.899-9.035 3.578-1.573 7.755-0.876 10.646 1.77l67.318 61.901 67.313-61.901c1.851-1.71 4.25-2.605 6.682-2.605 1.337 0 2.687 0.274 3.957 0.836 3.587 1.573 5.899 5.119 5.899 9.035v197.434c-5.525-8.807-13.323-17.177-25.271-21.052z" />
<glyph unicode="&#xe91c;" glyph-name="transport-1" horiz-adv-x="1296" d="M312.862 401.124c-72.942 0-131.995-59.095-131.995-132.037s59.095-132.037 131.995-132.037c72.86 0 131.995 59.095 131.995 132.037s-59.135 132.037-131.995 132.037zM312.862 229.195c-21.923 0-39.892 17.885-39.892 39.849s17.967 39.849 39.892 39.849c21.882 0 39.81-17.885 39.81-39.849s-17.885-39.849-39.81-39.849zM1273.997 377.263l-21.594 175.636c-4.244 33.709-33.709 58.436-67.708 56.581l-47.308-2.637-146.872 132.325c-14.176 12.735-32.432 19.741-51.47 19.741l-298.4 0.042c-66.967 0-131.913-22.871-184.126-64.823l-166.487-133.767-223.893-55.963c-28.764-7.17-48.957-33.050-48.957-62.68v-64.534c-9.478 0.042-17.185-7.623-17.185-17.102v-85.346c0-12.158 9.849-22.006 22.006-22.006h126.39c-0.535 5.48-1.649 10.715-1.649 16.32 0 91.775 74.343 166.034 166.075 166.034s166.034-74.26 166.034-166.034c0-5.646-1.154-10.879-1.69-16.32h349.994c-0.495 5.48-1.607 10.715-1.607 16.32 0 91.775 74.343 166.034 166.034 166.034 91.775 0 165.993-74.26 165.993-166.034 0-5.646-1.072-10.879-1.649-16.32h117.901c12.158 0 21.965 9.849 21.965 22.006v80.482c0.206 12.116-9.643 22.047-21.8 22.047zM831.116 593.077l-416.302-21.059 79.699 64.081c43.311 34.822 97.132 53.779 152.723 53.779h183.878v-96.802zM900.267 596.58v93.257h27.075c9.396 0 18.42-3.461 25.385-9.767l84.975-76.485-137.435-7.006zM991.668 401.124c-72.942 0-131.995-59.095-131.995-132.037s59.095-132.037 131.995-132.037c72.899 0 131.995 59.095 131.995 132.037s-59.095 132.037-131.995 132.037zM991.668 229.195c-21.965 0-39.849 17.885-39.849 39.849s17.885 39.849 39.849 39.849c21.882 0 39.849-17.885 39.849-39.849s-17.926-39.849-39.849-39.849z" />
<glyph unicode="&#xe91d;" glyph-name="mark" d="M325.818 221.091l-244.364 244.364-81.455-81.455 325.818-325.818 698.182 698.182-81.455 81.455z" />
<glyph unicode="&#xe91e;" glyph-name="web-settings" horiz-adv-x="1088" d="M266.357 518.978c0 86.458 70.361 156.779 156.818 156.779 86.451 0 156.779-70.318 156.779-156.779 0-19.552-3.628-38.264-10.196-55.54h201.797c2.878 18.104 4.394 36.647 4.394 55.54 0 24.886-2.605 49.132-7.51 72.566l62.877 55.855c10.355 9.211 12.827 24.428 5.911 36.445l-64.293 111.331c-6.931 12.008-21.339 17.484-34.525 13.119l-80.040-26.61c-35.968 32.194-78.536 57.165-125.391 72.54l-16.961 82.443c-2.79 13.57-14.729 23.334-28.605 23.334h-128.561c-13.837 0-25.811-9.763-28.595-23.334l-16.965-82.463c-46.858-15.376-89.417-40.353-125.346-72.579l-80.079 26.617c-13.144 4.385-27.578-1.111-34.525-13.132l-64.261-111.305c-6.918-12.008-4.476-27.254 5.901-36.471l62.922-55.862c-4.907-23.421-7.502-47.66-7.502-72.494 0-24.841 2.595-49.126 7.51-72.554l-62.88-55.855c-10.361-9.225-12.842-24.434-5.908-36.439l64.293-111.344c6.931-12.014 21.336-17.484 34.477-13.125l80.082 26.617c35.935-32.201 78.523-57.165 125.394-72.54l16.915-82.443c2.829-13.577 14.768-23.327 28.638-23.334h99.43v288.264c-11.316-2.601-23.083-4.027-35.182-4.027-86.454 0-156.815 70.328-156.815 156.779zM1059.605 422.117h-533.694c-14.467 0-26.234-11.761-26.234-26.224v-433.662c0-14.463 11.767-26.23 26.234-26.23h533.694c14.467 0 26.234 11.767 26.234 26.23v433.659c0 14.467-11.767 26.227-26.234 26.227zM1010.119 8.932h-434.721v261.214h434.721v-261.214zM742.392 63.524c5.947-5.956 13.862-9.237 22.278-9.237s16.33 3.28 22.275 9.237l114.225 114.225c12.278 12.281 12.278 32.259 0 44.546-5.947 5.95-13.862 9.231-22.275 9.231s-16.324-3.28-22.278-9.231l-91.946-91.953-35.773 35.767c-5.953 5.956-13.869 9.237-22.278 9.237-8.415 0-16.327-3.28-22.275-9.237-12.274-12.281-12.274-32.259 0-44.527l58.048-58.057z" />
<glyph unicode="&#xe91f;" glyph-name="arrow-left" d="M397.071 448l403.245 403.238c6.835 6.839 10.257 14.709 10.257 23.6s-3.418 16.761-10.257 23.586l-51.309 51.309c-6.843 6.835-14.709 10.267-23.579 10.267-8.895 0-16.761-3.432-23.6-10.267l-478.15-478.129c-6.839-6.839-10.249-14.709-10.249-23.6 0-8.895 3.411-16.761 10.249-23.6l478.125-478.129c6.85-6.85 14.724-10.267 23.615-10.267 8.88 0 16.747 3.418 23.586 10.267l51.309 51.273c6.835 6.839 10.246 14.713 10.246 23.611 0 8.884-3.407 16.751-10.246 23.59l-403.241 403.252z" />
<glyph unicode="&#xe920;" glyph-name="arrow-right" d="M800.34 471.604l-478.15 478.129c-6.843 6.835-14.717 10.267-23.604 10.267-8.891 0-16.761-3.432-23.6-10.267l-51.294-51.305c-6.85-6.839-10.26-14.695-10.26-23.6s3.411-16.761 10.26-23.6l403.238-403.238-403.238-403.245c-6.85-6.839-10.26-14.709-10.26-23.59 0-8.902 3.411-16.772 10.26-23.611l51.298-51.287c6.839-6.846 14.709-10.257 23.6-10.257 8.887 0 16.758 3.418 23.6 10.257l478.125 478.132c6.835 6.835 10.257 14.709 10.257 23.6s-3.396 16.761-10.232 23.615z" />
<glyph unicode="&#xe921;" glyph-name="arrows-2" d="M271.986 960c-8.378 0-16.705-3.45-22.628-9.373s-9.373-14.25-9.373-22.628v-448.025h-208.012c-12.551-0.026-24.709-8.167-29.509-19.764s-1.952-25.95 6.909-34.837l480.027-480.027c5.924-5.908 14.238-9.345 22.6-9.345 8.365 0 16.679 3.437 22.6 9.345l480.027 480.027c8.861 8.887 11.709 23.243 6.909 34.837-4.8 11.597-16.958 19.739-29.509 19.764h-208.012v448.025c0 8.378-3.45 16.705-9.373 22.628s-14.25 9.373-22.628 9.373h-480.027z" />
<glyph unicode="&#xe922;" glyph-name="behance-logo" d="M430.908 533.381c0 39.185-26.666 39.185-26.666 39.185h-109.738v-84.103h102.932c17.798 0 33.472 5.671 33.472 44.918zM685.135 488.463c-58.179 0-66.305-58.035-66.305-58.035h123.782c0-0.041 0.763 58.035-57.478 58.035zM404.242 430.387h-109.676v-100.767h97.157c1.65 0 4.083-0.082 6.991 0 15.612 0.392 45.289 4.847 45.289 48.96 0 52.301-39.762 51.806-39.762 51.806zM512 960c-282.316 0-512-229.684-512-512 0-282.295 229.684-512 512-512 282.295 0 512 229.705 512 512 0 282.316-229.664 512-512 512zM602.599 617.34h155.481v-46.424h-155.481v46.424zM523.982 373.9c0-115.017-119.74-111.264-119.74-111.264h-196.089v376.895h196.089c59.623 0 106.665-32.936 106.665-100.375 0-67.418-57.498-71.708-57.498-71.708 75.792 0.021 70.574-93.548 70.574-93.548zM814.877 380.087h-195.326c0-70.038 66.346-65.624 66.346-65.624 62.613 0 60.427 40.546 60.427 40.546h66.387c0-107.614-128.98-100.21-128.98-100.21-154.738 0-144.798 144.055-144.798 144.055s-0.144 144.818 144.798 144.818c152.532 0 131.104-163.586 131.145-163.586z" />
<glyph unicode="&#xe923;" glyph-name="facebook-logo" d="M512 960c-282.316 0-512-229.684-512-512 0-282.295 229.684-512 512-512 282.295 0 512 229.705 512 512 0 282.316-229.664 512-512 512zM639.33 429.975h-83.298c0-133.084 0-296.896 0-296.896h-123.432c0 0 0 162.225 0 296.896h-58.674v104.933h58.674v67.872c0 48.61 23.098 124.566 124.566 124.566l91.465-0.351v-101.86c0 0-55.58 0-66.387 0s-26.171-5.403-26.171-28.584v-61.664h94.043l-10.786-104.912z" />
<glyph unicode="&#xe924;" glyph-name="google-plus-logo" d="M443.406 363.155c-3.32 2.207-6.723 4.599-10.291 7.012-10.374 3.176-21.387 4.826-32.668 4.97h-1.361c-51.848 0-97.302-31.368-97.302-67.171 0-38.978 38.958-69.439 88.661-69.439 65.562 0 98.787 22.645 98.787 67.191 0 4.207-0.495 8.579-1.547 12.972-4.434 17.283-20.294 28.069-44.279 44.464zM406.676 499.023c0.041 0 0.041 0 0.041 0 12.395 0 22.851 4.888 30.956 14.168 12.704 14.478 18.334 38.236 14.993 63.459-5.878 45.083-38.112 82.618-71.749 83.587l-1.341 0.041c-11.9 0-22.521-4.908-30.585-14.148-12.518-14.292-17.819-36.937-14.54-62.118 5.898-45.042 38.814-83.958 71.749-84.99h0.474zM512 960c-282.316 0-512-229.684-512-512 0-282.295 229.684-512 512-512 282.295 0 512 229.705 512 512 0 282.316-229.664 512-512 512zM452.975 198.682c-19.345-5.589-40.278-8.414-62.242-8.414-24.46 0-47.97 2.805-69.893 8.353-42.423 10.704-73.77 30.997-88.413 57.148-6.311 11.302-9.507 23.346-9.507 35.823 0 12.848 3.073 25.883 9.136 38.793 23.243 49.538 84.515 82.865 152.387 82.865 0.681 0 1.32 0 1.939 0-5.506 9.714-8.167 19.778-8.167 30.358 0 5.259 0.701 10.621 2.104 16.086-71.192 1.609-124.463 53.745-124.463 122.483 0 48.527 38.793 95.817 94.27 114.914 16.602 5.733 33.534 8.662 50.177 8.662h152.243c5.177 0 9.776-3.362 11.384-8.291 1.609-4.908-0.165-10.312-4.352-13.343l-34.049-24.645c-2.042-1.444-4.496-2.227-7.033-2.227h-12.189c15.736-18.871 24.954-45.784 24.954-75.998 0-33.348-16.87-64.882-47.579-88.908-23.717-18.479-24.645-23.573-24.645-34.111 0.289-5.795 16.808-24.707 35.039-37.597 42.464-30.028 58.262-59.499 58.262-108.665-0.021-51.373-39.020-95.755-99.364-113.285zM796.79 459.817c0-6.6-5.383-11.962-11.962-11.962h-86.516v-86.557c0-6.6-5.383-11.962-11.92-11.962h-24.645c-6.641 0-12.003 5.362-12.003 11.962v86.557h-86.454c-6.6 0-11.962 5.321-11.962 11.962v24.604c0 6.6 5.362 12.003 11.962 12.003h86.454v86.475c0 6.62 5.362 11.962 12.003 11.962h24.645c6.538 0 11.92-5.341 11.92-11.962v-86.475h86.495c6.579 0 11.962-5.362 11.962-11.962v-24.645z" />
<glyph unicode="&#xe925;" glyph-name="instagram-logo" d="M511.979 345.501c56.488 0 102.54 45.97 102.54 102.499 0 22.315-7.301 42.918-19.386 59.746-18.623 25.821-48.898 42.753-83.092 42.753-34.214 0-64.469-16.911-83.133-42.732-12.127-16.829-19.366-37.432-19.386-59.746-0.062-56.529 45.949-102.52 102.458-102.52zM735.807 573.391v98.704l-98.725-0.309 0.33-98.725zM512 960c-282.316 0-512-229.684-512-512 0-282.295 229.684-512 512-512 282.295 0 512 229.705 512 512 0 282.316-229.664 512-512 512zM803.184 507.746v-238.408c0-62.097-50.486-112.563-112.543-112.563h-357.282c-62.077 0-112.543 50.466-112.543 112.563v357.282c0 62.077 50.466 112.543 112.543 112.543h357.262c62.077 0 112.563-50.466 112.563-112.543v-118.874zM671.276 448c0-87.794-71.44-159.276-159.276-159.276s-159.255 71.481-159.255 159.276c0 21.119 4.207 41.309 11.714 59.746h-86.928v-238.408c0-30.812 25.016-55.766 55.807-55.766h357.262c30.75 0 55.807 24.954 55.807 55.766v238.408h-86.969c7.569-18.437 11.838-38.628 11.838-59.746z" />
<glyph unicode="&#xe926;" glyph-name="linkedin-logo" d="M605.301 520.76c-43.825 0-63.397-24.088-74.348-41v35.143h-82.535c1.072-23.263 0-248.328 0-248.328h82.535v138.735c0 7.404 0.474 14.849 2.702 20.149 5.981 14.849 19.551 30.213 42.361 30.213 29.863 0 41.804-22.768 41.804-56.179v-132.857h82.556v142.406c-0.041 76.225-40.773 111.718-95.075 111.718zM530.891 478.894h-0.516c0.165 0.289 0.412 0.557 0.516 0.846v-0.846zM320.139 514.903h82.535v-248.328h-82.535v248.328zM512 960c-282.316 0-512-229.684-512-512 0-282.295 229.684-512 512-512 282.295 0 512 229.705 512 512 0 282.316-229.664 512-512 512zM783.509 216.418c0-21.778-18.066-39.391-40.402-39.391h-465.7c-22.273 0-40.36 17.613-40.36 39.391v471.124c0 21.758 18.087 39.391 40.36 39.391h465.7c22.315 0 40.402-17.654 40.402-39.391v-471.124zM361.964 634.622c-28.213 0-46.692-18.52-46.692-42.897 0-23.82 17.922-42.897 45.599-42.897h0.536c28.79 0 46.712 19.077 46.712 42.897-0.557 24.356-17.901 42.897-46.155 42.897z" />
<glyph unicode="&#xe927;" glyph-name="tumblr-logo" d="M512 960c-282.316 0-512-229.684-512-512 0-282.295 229.684-512 512-512 282.295 0 512 229.705 512 512 0 282.316-229.664 512-512 512zM685.093 203.962c-23.717-11.178-45.289-19.097-64.634-23.593-19.304-4.475-40.092-6.765-62.531-6.765-25.429 0-40.484 3.217-60.015 9.631-19.572 6.455-36.256 15.674-50.053 27.491-13.859 11.9-23.387 24.542-28.729 37.927-5.341 13.405-8.023 32.853-8.023 58.323v195.222h-75.647v78.864c21.861 7.094 47.207 17.262 62.778 30.523 15.633 13.302 28.151 29.203 37.535 47.805 9.507 18.541 15.983 42.237 19.551 70.904h79.174v-128.712h128.712v-99.405h-128.712v-142.715c0-32.276-0.433-50.961 3.011-60.097 3.424-9.074 11.92-18.541 21.18-24.006 12.395-7.383 26.398-11.095 42.258-11.095 28.192 0 56.261 9.136 84.103 27.471v-87.774h0.041z" />
<glyph unicode="&#xe928;" glyph-name="twitter-logo" d="M512 960c-282.316 0-512-229.684-512-512 0-282.295 229.684-512 512-512 282.295 0 512 229.705 512 512 0 282.316-229.664 512-512 512zM740.406 565.183c0.227-5.073 0.351-10.188 0.351-15.303 0-155.728-118.503-335.236-335.318-335.236-66.552 0-128.505 19.448-180.642 52.899 9.219-1.093 18.602-1.65 28.11-1.65 55.23 0 106.026 18.85 146.365 50.445-51.559 0.949-95.095 35.019-110.088 81.855 7.177-1.361 14.581-2.124 22.15-2.124 10.745 0 21.18 1.402 31.059 4.104-53.91 10.807-94.518 58.426-94.518 115.554 0 0.495 0 1.011 0.021 1.485 15.88-8.806 34.049-14.127 53.353-14.725-31.595 21.098-52.404 57.189-52.404 98.065 0 21.613 5.795 41.866 15.942 59.272 58.097-71.316 144.963-118.214 242.883-123.164-2.021 8.641-3.032 17.613-3.032 26.872 0 65.067 52.755 117.843 117.822 117.843 33.905 0 64.49-14.313 86.021-37.205 26.872 5.28 52.033 15.055 74.863 28.605-8.868-27.532-27.491-50.61-51.889-65.212 23.861 2.846 46.63 9.157 67.686 18.541-15.715-23.593-35.699-44.361-58.736-60.922z" />
<glyph unicode="&#xe929;" glyph-name="arrowhead-pointing-to-the-right" d="M780.994 493.002l-447.996 448c-12.669 12.669-27.653 18.998-44.997 18.998s-32.339-6.329-45.008-18.998c-12.669-12.669-18.998-27.663-18.998-44.997v-895.996c0-17.331 6.329-32.335 18.998-44.997 12.683-12.669 27.677-19.012 45.008-19.012 17.334 0 32.328 6.343 44.997 19.012l447.996 448c12.658 12.655 19.012 27.66 19.012 44.997 0 17.331-6.35 32.325-19.012 44.994z" />
<glyph unicode="&#xe92a;" glyph-name="arrow_up" d="M316 280.667l-60 60 256 256 256-256-60-60-196 196z" />
<glyph unicode="&#xe92b;" glyph-name="arrow_down" d="M316 604.667l196-196 196 196 60-60-256-256-256 256z" />
<glyph unicode="&#xe92c;" glyph-name="exhaust-pipe" horiz-adv-x="1424" d="M1210.122 326.529c-12.18-43.18-33.559-69.106-49.453-69.106-23.494 0-59.011 56.61-59.011 141.936 0 83.894 34.327 139.984 57.809 141.844v0.676h115.208c-1.471 2.97-2.982 5.893-4.553 8.743-23.583 42.794-61.333 76.237-110.873 76.237-5.41 0-665.655 0.078-669.046-0.139-41.808-1.166-80.566-28.775-106.693-76.181-4.984-9.041-9.442-18.724-13.414-28.881h-83.081v77.985c0 69.76-56.751 126.515-126.512 126.515h-96.331c-35.445-0.002-64.177-28.736-64.177-64.181 0-35.441 28.734-64.177 64.177-64.177h94.493v-77.985c0-69.76 56.751-126.512 126.515-126.512h63.291c0.848-54.246 13.193-105.646 35.046-145.299 24.353-44.189 64.29-78.165 113.497-76.154 2.587 0 659.162 0 663.655 0 42.859 0 82.751 27.787 109.454 76.237 12.577 22.82 22 49.537 27.907 78.438h-87.911zM1396.211 497.678h-195.117c-15.35 0-27.793-28.853-27.793-64.44 0-35.589 12.443-64.44 27.793-64.44h195.117c15.35 0 27.793 28.853 27.793 64.44s-12.443 64.44-27.793 64.44z" />
<glyph unicode="&#xe92d;" glyph-name="engine" horiz-adv-x="1120" d="M767.96 634.238l-61.55 54.578h-101.785v49.643h32.738v73.043h-259.492v-73.043h32.741v-49.643h-105.972l-61.552-54.578h-97.003v-181.415h-73.045v93.223h-73.043v-259.494h73.043v93.227h73.045v-181.415h158.555l128.427-113.869h431.846v549.742zM1081.328 577.499l-10.627 17.787h-132.745v-469.495h132.745l10.627 17.789c3.959 6.622 38.675 68.988 38.675 216.96s-34.716 210.336-38.675 216.96z" />
<glyph unicode="&#xe92e;" glyph-name="gearshift" d="M896 184.692v526.616c49.716 17.568 85.334 64.948 85.334 120.692 0 70.71-57.29 128-128 128s-128-57.29-128-128c0-55.744 35.616-103.124 85.334-120.692v-220.642h-256v220.642c49.716 17.568 85.332 64.948 85.332 120.692 0 70.71-57.29 128-128 128s-128-57.29-128-128c0-55.744 35.616-103.124 85.334-120.692v-220.642h-256v220.642c49.716 17.568 85.334 64.948 85.334 120.692 0 70.71-57.29 128-128 128s-128-57.29-128-128c0-55.744 35.616-103.124 85.334-120.692v-263.308c0-23.564 19.102-42.666 42.666-42.666h298.666v-220.642c-49.718-17.568-85.334-64.948-85.334-120.692 0-70.71 57.29-128 128-128s128 57.29 128 128c0 55.744-35.616 103.124-85.334 120.692v220.642h256v-220.642c-49.716-17.568-85.334-64.948-85.334-120.692 0-70.71 57.29-128 128-128s128 57.29 128 128c0.002 55.744-35.616 103.124-85.332 120.692zM853.334 874.666c23.582 0 42.666-19.084 42.666-42.666s-19.084-42.666-42.666-42.666-42.668 19.084-42.668 42.666 19.084 42.666 42.668 42.666zM512 874.666c23.582 0 42.666-19.084 42.666-42.666s-19.084-42.666-42.666-42.666c-23.582 0-42.666 19.084-42.666 42.666s19.084 42.666 42.666 42.666zM170.666 874.666c23.582 0 42.666-19.084 42.666-42.666s-19.084-42.666-42.666-42.666-42.666 19.084-42.666 42.666 19.084 42.666 42.666 42.666zM512 21.334c-23.582 0-42.666 19.084-42.666 42.666s19.084 42.666 42.666 42.666c23.582 0 42.666-19.084 42.666-42.666s-19.084-42.666-42.666-42.666zM853.334 21.334c-23.582 0-42.666 19.084-42.666 42.666s19.084 42.666 42.666 42.666 42.666-19.084 42.666-42.666-19.084-42.666-42.666-42.666z" />
<glyph unicode="&#xe92f;" glyph-name="shop-cart" d="M1024 806.957h-755.2l-21.612 125.704h-191.351c-30.887 0-55.838-24.997-55.838-55.861v-55.838h153.090l98.504-572.962c2.18-12.614 14.307-22.841 27.13-22.841h661.496c30.887 0 55.884 24.974 55.884 55.907v55.791h-646.47l-13.612 79.165h511.119c61.681 0 119.93 49.345 130.11 110.145l46.748 280.788zM548.058 59.896c0-53.34-43.24-96.58-96.58-96.58s-96.58 43.24-96.58 96.58c0 53.34 43.24 96.58 96.58 96.58s96.58-43.24 96.58-96.58zM690.133 59.919c0-53.31 43.2-96.557 96.51-96.557 53.357 0 96.649 43.246 96.649 96.557s-43.293 96.603-96.649 96.603c-53.31 0-96.51-43.316-96.51-96.603z" />
<glyph unicode="&#xe930;" glyph-name="close" d="M810 664.667l-238-238 238-238-60-60-238 238-238-238-60 60 238 238-238 238 60 60 238-238 238 238z" />
<glyph unicode="&#xe931;" glyph-name="phone" d="M896.001 279.999c-57.597 0-115.203 9.598-172.8 28.803-14.397 4.799-33.604 0-47.999-9.598l-105.597-105.597c-134.397 67.203-244.803 182.398-316.797 316.797l105.597 105.597c14.397 14.397 19.197 33.602 9.598 47.999-14.397 52.798-24.003 110.403-24.003 168.001 0 28.803-19.197 47.999-47.999 47.999h-168.001c-28.803 0-47.999-19.197-47.999-47.999 0-451.197 364.797-816.001 816.001-816.001 28.803 0 47.999 19.197 47.999 47.999v168.001c0 28.803-19.197 47.999-47.999 47.999zM848.002 448h95.998c0 240.003-191.997 432-432 432v-95.998c187.197 0 336.002-148.797 336.002-336.002zM655.997 448h95.998c0 134.399-105.597 240.003-240.003 240.003v-95.998c81.601 0 143.997-62.397 143.997-143.997z" />
<glyph unicode="&#xe932;" glyph-name="email" d="M905.599 841.599h-787.199c-54.365 0-97.907-44.033-97.907-98.401l-0.494-590.397c0-54.368 44.033-98.401 98.401-98.401h787.199c54.365 0 98.401 44.033 98.401 98.401v590.4c0 54.365-44.036 98.398-98.401 98.398zM905.599 644.8l-393.6-246.001-393.598 246.001v98.401l393.598-246.001 393.6 246.001v-98.401z" />
<glyph unicode="&#xe933;" glyph-name="ok" d="M916.122 960h-808.245c-59.584 0-107.878-48.503-107.878-107.878v-808.245c0-59.584 48.503-107.878 107.878-107.878h808.245c59.584 0 107.878 48.503 107.878 107.878v808.245c0 59.374-48.503 107.878-107.878 107.878zM972.779 43.878c0-31.151-25.506-56.657-56.657-56.657h-808.245c-31.151 0-56.657 25.506-56.657 56.657v808.245c0 31.151 25.506 56.657 56.657 56.657h808.245c31.151 0 56.657-25.506 56.657-56.657v-808.245zM667.962 588.073l-227.254-225.79-84.671 85.089c-10.035 10.035-26.133 10.035-36.168 0s-10.035-26.133 0-36.168l102.651-103.278c4.808-4.808 11.29-7.526 18.189-7.526v0c6.69 0 13.171 2.718 17.98 7.526l245.442 243.979c10.035 10.035 10.035 26.133 0 36.168s-26.133 10.035-36.168 0z" />
<glyph unicode="&#xe934;" glyph-name="info" d="M512 960c-282.317 0-512-229.686-512-512.003s229.683-511.997 512-511.997 512 229.68 512 511.997c0 282.317-229.683 512.003-512 512.003zM512 29.091c-230.99 0-418.909 187.92-418.909 418.906s187.92 418.912 418.909 418.912 418.909-187.926 418.909-418.912c0-230.986-187.923-418.906-418.909-418.906zM511.994 742.788c-34.214 0-62.048-27.853-62.048-62.089 0-34.205 27.834-62.033 62.048-62.033s62.048 27.828 62.048 62.033c0 34.236-27.834 62.089-62.048 62.089zM512 525.576c-25.706 0-46.545-20.84-46.545-46.545v-279.273c0-25.706 20.84-46.545 46.545-46.545s46.545 20.84 46.545 46.545v279.273c0 25.706-20.84 46.545-46.545 46.545z" />
<glyph unicode="&#xe935;" glyph-name="raketa" horiz-adv-x="1120" d="M1072.286 820.824c0-36.727 0-75.387 0-112.115 0-7.732-1.933-15.464-7.732-21.263-40.593-40.593-83.12-83.12-123.713-123.713-1.933-1.933-3.866-5.799-3.866-9.665 1.933-19.33 3.866-38.66 5.799-59.924 1.933-19.33 3.866-38.66 5.799-57.99 1.933-21.263 3.866-42.527 7.732-63.789 0-1.933 0-5.799 0-7.732 1.933-9.665-1.933-15.464-7.732-23.196-36.727-36.727-75.387-75.387-112.115-112.115-13.531-13.531-34.794-9.665-42.527 7.732-15.464 38.66-32.861 77.321-50.258 115.98-1.933 7.732-5.799 7.732-11.598 3.866-3.866-3.866-7.732-7.732-13.531-13.531-9.665-9.665-25.129-9.665-34.794 0-13.531 13.531-27.062 27.062-42.527 42.527 0 0-1.933 1.933-1.933 1.933-3.866 3.866-9.665 1.933-11.598-3.866-3.866-11.598-9.665-23.196-17.397-32.861-21.263-25.129-48.326-38.66-81.186-38.66-27.062 0-56.057 0-83.12 0-13.531 0-23.196 9.665-23.196 23.196 0 28.995 0 56.057 0 85.052 0 44.459 28.995 83.12 71.522 96.65 7.732 1.933 7.732 7.732 1.933 11.598-13.531 13.531-27.062 28.995-42.527 42.527-9.665 9.665-9.665 27.062 0 36.727 3.866 3.866 7.732 7.732 11.598 11.598s3.866 9.665-1.933 11.598c-38.66 17.397-77.321 32.861-117.914 50.258-17.397 7.732-21.263 27.062-7.732 40.593 38.66 38.66 75.387 75.387 114.047 114.047 9.665 7.732 15.464 9.665 25.129 7.732 32.861-3.866 63.789-7.732 96.65-11.598 30.928-3.866 61.856-5.799 90.851-9.665 3.866 0 5.799 0 9.665 3.866 40.593 40.593 83.12 83.12 123.713 123.713 7.732 7.732 13.531 9.665 23.196 9.665 75.387 0 150.774 0 226.162 0 11.598 0 23.196-7.732 25.129-19.33 0-1.933 0-3.866 0-7.732 0-36.727 0-75.387 0-112.115zM703.082 397.495c1.933 1.933 3.866 1.933 5.799 3.866 100.517 100.517 199.1 199.1 299.616 299.616 3.866 3.866 3.866 7.732 0 11.598-61.856 61.856-123.713 123.713-183.635 183.635-3.866 3.866-7.732 3.866-11.598 0-5.799-5.799-11.598-11.598-17.397-17.397-92.784-92.784-187.502-187.502-280.286-280.286 0 0-1.933-1.933-1.933-1.933-1.933-3.866-1.933-5.799 0-9.665 0 0 1.933-1.933 1.933-1.933 61.856-61.856 121.779-121.779 183.635-183.635 0 0 1.933-1.933 1.933-1.933-1.933 0 0-1.933 1.933-1.933zM907.981 370.434c0 7.732-1.933 11.598-1.933 17.397-1.933 21.263-3.866 42.527-7.732 63.789-1.933 15.464-3.866 30.928-5.799 46.392 0 3.866-1.933 5.799-3.866 7.732-3.866 1.933-5.799 0-7.732-1.933-32.861-32.861-65.723-65.723-98.583-98.583-1.933-1.933-3.866-5.799-1.933-9.665 13.531-32.861 28.995-65.723 42.527-98.583 1.933-5.799 7.732-5.799 11.598-1.933 1.933 1.933 3.866 3.866 3.866 3.866 21.263 21.263 44.459 44.459 65.723 65.723 1.933 3.866 1.933 5.799 3.866 5.799zM482.719 795.694c-1.933 0-3.866-1.933-5.799-3.866-23.196-23.196-46.392-46.392-69.588-69.588-5.799-5.799-3.866-9.665 1.933-11.598 32.861-13.531 63.789-27.062 96.65-40.593 3.866-1.933 7.732-1.933 9.665 1.933 32.861 32.861 65.723 65.723 98.583 98.583 0 0 1.933 1.933 1.933 3.866 1.933 3.866 0 7.732-3.866 9.665-1.933 0-1.933 0-3.866 0-9.665 1.933-19.33 1.933-28.995 3.866-19.33 1.933-38.66 3.866-57.99 5.799-9.665-1.933-23.196 0-38.66 1.933zM505.915 360.768c7.732 0 15.464 0 23.196 0 34.794 0 59.924 30.928 56.057 63.789-3.866 27.062-27.062 48.326-54.125 50.258-32.861 0-57.99-25.129-57.99-57.99 0-15.464 0-32.861 0-48.326 0-5.799 1.933-9.665 9.665-9.665 7.732 1.933 15.464 1.933 23.196 1.933zM954.373 911.675c-11.598 0-23.196 0-34.794 0-7.732 0-17.397 0-25.129 0-5.799 0-7.732-1.933-7.732-5.799 0-1.933 1.933-5.799 3.866-5.799 40.593-40.593 81.186-81.186 121.779-121.779 1.933-1.933 5.799-5.799 9.665-3.866s3.866 5.799 3.866 7.732c0 0 0 0 0 0 0 40.593 0 79.253 0 119.846 0 7.732-1.933 9.665-9.665 9.665-21.263 0-42.527 0-61.856 0zM316.481 238.988c-86.985-86.985-173.971-173.971-259.022-260.956 0 0-1.933-1.933-1.933-1.933-9.665-11.598-7.732-28.995 5.799-36.727 7.732-5.799 19.33-3.866 28.995 3.866 52.191 52.191 104.382 104.382 154.64 154.64 34.794 34.794 71.522 71.522 106.316 106.316 7.732 7.732 9.665 17.397 5.799 27.062s-13.531 15.464-23.196 15.464c-7.732 0-13.531-3.866-17.397-7.732zM312.614-37.431c9.665-5.799 21.263-3.866 30.928 3.866 56.057 56.057 112.115 112.115 170.105 170.105 0 0 1.933 1.933 1.933 1.933 9.665 11.598 7.732 28.995-5.799 36.727-9.665 5.799-21.263 3.866-30.928-3.866-42.527-42.527-86.985-86.985-129.512-129.512-13.531-13.531-25.129-25.129-38.66-38.66-5.799-5.799-7.732-9.665-7.732-15.464-1.933-13.531 1.933-21.263 9.665-25.129zM90.319 173.267c56.057 56.057 112.115 112.115 168.172 168.172 0 0 1.933 1.933 1.933 3.866 7.732 9.665 7.732 23.196 0 30.928-9.665 11.598-25.129 11.598-36.727 0-56.057-56.057-112.115-112.115-168.172-168.172 0 0-1.933-1.933-1.933-1.933-5.799-7.732-7.732-17.397-3.866-25.129 3.866-9.665 11.598-13.531 21.263-13.531 7.732-1.933 13.531 1.933 19.33 5.799zM677.952 590.796c0-13.531 9.665-25.129 23.196-25.129s25.129 9.665 25.129 23.196c0 13.531-9.665 25.129-23.196 25.129-13.531 1.933-23.196-9.665-25.129-23.196zM817.129 729.973c-13.531 0-25.129-9.665-25.129-23.196s11.598-25.129 25.129-25.129c13.531 0 23.196 11.598 23.196 25.129 1.933 13.531-9.665 23.196-23.196 23.196z" />
<glyph unicode="&#xe936;" glyph-name="wrech1" horiz-adv-x="1136" d="M1000.943 335.874c-12.087 0-21.88-9.794-21.88-21.88v-271.662h-180.624v335.523c0 0.009 0 0.020 0 0.029v42.013h202.504c12.087 0 21.88 9.794 21.88 21.88s-9.794 21.88-21.88 21.88h-224.383c-12.087 0-21.88-9.794-21.88-21.88v-11.083l-139.335 139.335c-21.238 21.238-52.224 26.91-78.686 17.055 45.519 43.559 71.181 103.025 71.181 166.775 0 84.839-46.322 162.808-120.888 203.47-6.774 3.699-15.007 3.545-21.647-0.394-6.637-3.944-10.71-11.095-10.71-18.814v-194.77h-156.778v194.773c0 7.719-4.073 14.873-10.71 18.814s-14.867 4.087-21.647 0.397c-74.567-40.668-120.888-118.633-120.888-203.476 0-68.885 29.95-132.791 82.557-177.007v-57.008h-39.536c-41.033 0-74.415-33.38-74.415-74.415v-1.062c0-20.486 8.323-39.066 21.763-52.536-13.44-13.469-21.763-32.047-21.763-52.536v-1.062c0-20.486 8.323-39.066 21.763-52.536-13.44-13.469-21.763-32.047-21.763-52.536v-1.062c0-20.486 8.323-39.066 21.763-52.536-13.44-13.469-21.763-32.047-21.763-52.536v-1.059c0-41.033 33.38-74.418 74.415-74.418h43.072c14.858-66.749 74.634-115.55 144.268-115.55h2.544c70.422 0 129.457 49.516 144.218 115.55h174.67c12.087 0 21.88 9.794 21.88 21.88s-9.794 21.88-21.88 21.88h-171.084v180.566c0 12.087-9.794 21.88-21.88 21.88s-21.88-9.794-21.88-21.88v-192.072c0-57.37-46.675-104.044-104.044-104.044h-2.544c-45.645 0-85.27 29.775-98.947 71.79h34.439c41.033 0 74.415 33.383 74.415 74.418v1.059c0 20.486-8.323 39.066-21.763 52.536 13.44 13.469 21.763 32.047 21.763 52.536v1.062c0 20.486-8.323 39.066-21.763 52.536 13.44 13.469 21.763 32.047 21.763 52.536v1.062c0 20.486-8.323 39.066-21.763 52.536 13.44 13.469 21.763 32.047 21.763 52.536v1.062c0 41.033-33.38 74.415-74.415 74.415h-39.536v67.502c0 6.812-3.174 13.236-8.583 17.376-47.010 35.971-73.971 90.329-73.971 149.137 0 55.541 24.477 107.445 65.725 142.754v-175.139c0-12.087 9.794-21.88 21.88-21.88h200.538c12.087 0 21.88 9.794 21.88 21.88v175.139c41.243-35.309 65.722-87.216 65.722-142.754 0-58.811-26.962-113.169-73.971-149.134-5.409-4.143-8.583-10.567-8.583-17.379v-45.899l-58.271-58.271c-14.053-14.056-21.798-32.747-21.798-52.623s7.743-38.565 21.798-52.62l0.75-0.75c14.511-14.508 33.564-21.761 52.62-21.761 19.053 0.003 38.112 7.255 52.617 21.761l43.562 43.559c8.548 8.545 8.548 22.399 0.003 30.941-8.545 8.548-22.399 8.545-30.941 0.003l-43.565-43.559c-11.949-11.955-31.402-11.955-43.349 0l-0.75 0.75c-5.791 5.788-8.983 13.487-8.983 21.676 0 8.192 3.192 15.888 8.983 21.679l86.852 86.852c11.952 11.958 31.399 11.955 43.323 0.032v0c0.009-0.009 0.018-0.020 0.026-0.029l170.279-170.282v-348.35c0-12.087 9.794-21.88 21.88-21.88h224.383c12.087 0 21.88 9.794 21.88 21.88v293.542c0 12.084-9.794 21.877-21.88 21.877zM341.077 339.299v-1.062c0-16.903-13.752-30.656-30.656-30.656h-122.828c-16.903 0-30.656 13.752-30.656 30.656v1.062c0 16.903 13.752 30.656 30.656 30.656h122.831c16.903 0 30.653-13.752 30.653-30.656zM341.077 233.166v-1.062c0-16.903-13.752-30.656-30.656-30.656h-122.828c-16.903 0-30.656 13.752-30.656 30.656v1.062c0 16.903 13.752 30.656 30.656 30.656h122.831c16.903 0 30.653-13.752 30.653-30.656zM341.077 125.974c0-16.906-13.752-30.658-30.656-30.658h-122.828c-16.903 0-30.656 13.752-30.656 30.658v1.059c0 16.903 13.752 30.656 30.656 30.656h122.831c16.903 0 30.656-13.752 30.656-30.656v-1.059zM341.077 445.431v-1.062c0-16.903-13.752-30.656-30.656-30.656h-122.828c-16.903 0-30.656 13.752-30.656 30.656v1.062c0 16.903 13.752 30.656 30.656 30.656h122.831c16.903 0 30.653-13.752 30.653-30.656z" />
<glyph unicode="&#xe937;" glyph-name="gear" horiz-adv-x="1136" d="M576.266 195.419c0-13.428-10.743-24.17-24.17-24.17-45.654 0-90.772 11.548-130.787 33.032-88.354 48.071-143.408 140.454-143.408 240.895 0 151.197 122.998 274.196 274.196 274.196 117.359 0 221.827-74.659 259.426-185.572 4.297-12.622-2.417-26.318-15.039-30.615s-26.318 2.417-30.615 15.039c-31.153 91.577-117.090 152.808-213.771 152.808-124.61 0-225.856-101.245-225.856-225.856 0-82.715 45.386-158.985 118.165-198.463 32.763-17.724 70.093-27.393 107.691-27.393 13.428 0.269 24.17-10.474 24.17-23.901zM711.349 445.445c0-87.817-71.436-159.253-159.253-159.253s-159.253 71.436-159.253 159.253 71.436 159.253 159.253 159.253c87.817 0 159.253-71.436 159.253-159.253zM663.009 445.445c0 61.231-49.683 110.913-110.913 110.913s-110.913-49.683-110.913-110.913c0-61.231 49.683-110.913 110.913-110.913s110.913 49.683 110.913 110.913zM505.098-15.934c-20.678 4.029-30.884 9.668-34.375 12.354l-11.010 105.274c-1.075 9.4-7.251 17.456-16.382 20.41-43.237 14.502-82.715 37.329-117.359 67.945-6.983 6.177-17.187 7.788-25.782 4.029l-96.949-43.237c-9.131 3.491-32.763 23.633-55.054 62.305s-27.93 69.019-26.587 78.686l86.206 62.305c7.52 5.639 11.279 15.039 9.4 24.438-4.297 22.022-6.714 44.581-6.714 67.139 0 22.828 2.148 45.654 6.714 67.945 1.879 9.4-1.879 18.799-9.4 24.438l-86.206 62.574c-1.611 9.668 4.029 40.015 26.318 78.686 22.828 38.135 46.46 58.276 55.591 61.768l97.485-43.506c8.594-3.76 18.799-2.417 25.782 4.029 34.375 30.078 73.584 52.906 116.553 67.407 8.862 2.954 15.308 11.010 16.382 20.41l11.010 106.348c7.52 6.177 36.792 16.382 81.373 16.382s73.853-10.205 81.373-16.382l11.010-106.348c1.075-9.4 7.251-17.456 16.382-20.41 42.969-14.502 82.178-37.061 116.553-67.407 6.983-6.177 17.187-7.788 25.782-4.029l97.485 43.506c9.131-3.491 32.495-23.633 55.054-62.305 22.29-38.672 27.93-69.019 26.318-78.686l-86.206-62.574c-7.788-5.639-11.279-15.039-9.4-24.438 1.343-7.251 2.685-14.77 3.76-22.29 1.879-13.16 13.964-22.559 27.124-20.678s22.559 13.964 20.678 27.124c-0.537 3.223-0.806 6.714-1.343 9.937l74.659 53.979c36.792 23.095 15.845 90.504-13.697 141.529-15.308 26.587-33.569 49.683-51.562 65.259-30.078 26.050-51.294 24.17-64.185 17.187l-84.327-37.598c-32.227 26.050-67.945 46.729-106.348 61.499l-9.668 92.114c-1.879 43.506-70.63 58.814-129.444 58.814-63.647 0-127.832-18.262-129.444-59.082l-9.4-91.577c-38.672-14.77-74.121-35.181-106.348-61.499l-84.596 37.867c-38.404 20.141-86.206-31.69-115.747-82.715-15.308-26.587-26.318-53.979-30.884-77.344-7.52-38.94 4.834-56.397 17.187-64.185l74.659-53.979c-3.223-20.41-4.834-41.358-4.834-62.036 0-20.41 1.611-41.089 4.834-61.231l-74.39-53.979c-12.354-7.788-24.707-25.244-17.187-64.185 4.566-23.095 15.308-50.758 30.884-77.344 29.541-51.025 77.075-102.589 115.747-82.715l83.79 37.598c32.227-26.318 68.213-47.266 107.153-62.036l9.4-91.040c0.537-15.576 11.548-41.894 73.315-53.979 1.611-0.269 3.223-0.537 4.566-0.537 11.279 0 21.484 8.056 23.633 19.605 2.417 13.16-6.177 25.782-19.336 28.467zM860.399-40.104v0c-14.233 0-25.782 11.548-25.782 25.782v353.151c0 14.233 11.548 25.782 25.782 25.782v0c14.233 0 25.782-11.548 25.782-25.782v-353.151c0-14.233-11.548-25.782-25.782-25.782zM1062.621 162.118v0c0-14.233-11.548-25.782-25.782-25.782h-353.151c-14.233 0-25.782 11.548-25.782 25.782v0c0 14.233 11.548 25.782 25.782 25.782h353.151c14.233 0 25.782-11.548 25.782-25.782z" />
<glyph unicode="&#xe938;" glyph-name="122264" d="M1024 901.486l-58.511 58.514-453.489-453.486-453.486 453.486-58.514-58.514 453.486-453.486-453.486-453.489 58.514-58.511 453.486 453.486 453.489-453.486 58.511 58.511-453.486 453.489z" />
<glyph unicode="&#xe939;" glyph-name="diag" horiz-adv-x="935" d="M448.402 195.836c0 47.398-0.328 94.795 0.164 142.193 0.328 27.389-6.888 51.661-23.616 73.802-19.844 26.241-29.029 57.074-33.457 89.384-7.38 53.957-6.232 107.588 4.591 161.054 4.921 24.109 11.645 47.725 22.961 69.702 13.941 27.061 34.442 46.906 64.946 54.449 7.38 1.804 14.925 2.625 22.468 2.788 56.418 1.148 112.672 1.969 169.090 2.625 31.325 0.328 62.814 0.82 94.139-0.164 16.893-0.493 33.95-2.625 50.513-6.068 28.537-5.905 48.546-23.781 61.666-49.038 17.384-33.129 27.552-68.554 30.014-105.947 2.132-30.669 3.444-61.502 3.444-92.336 0-32.802-4.591-65.109-18.040-95.286-5.412-11.972-11.809-23.781-19.844-34.113-15.745-20.173-22.797-42.97-22.797-67.898-0.164-102.339 0-204.679 0-307.183 0-39.361-19.516-67.571-52.154-87.087-15.089-9.020-32.966-10.005-50.022-10.168-70.030-0.656-139.897-0.656-209.927-0.328-46.577 0.164-87.907 36.737-92.171 82.986-2.625 28.373-2.132 57.074-2.459 85.611-0.328 30.177-0.164 60.354-0.164 90.532 0.328 0.493 0.493 0.493 0.656 0.493zM659.477 463.328c4.756 0 9.512-0.164 14.432 0 32.309 0.82 64.618 2.625 96.6 8.036 29.356 4.921 47.398 20.009 55.762 48.054 1.148 3.608 2.459 7.216 3.116 10.989 8.693 40.509 10.168 81.347 5.412 122.348-3.936 34.77-21.32 54.122-54.286 59.698-29.356 4.921-59.041 8.693-88.726 9.675-35.917 1.148-71.998-0.984-107.916-2.132-22.961-0.82-45.757-3.444-68.227-9.348-22.141-5.74-36.902-19.353-43.462-41.33-4.921-16.236-6.888-32.802-6.068-49.694 0.82-14.596 1.641-29.193 1.804-43.789 0.493-20.992 3.936-41.33 10.496-61.174 7.053-21.484 21.484-35.098 43.625-40.182 45.429-10.496 91.187-13.285 137.436-11.152zM615.852 111.209c0-21.813 14.596-36.573 36.409-36.737 20.829-0.164 36.902 17.056 36.902 39.689 0 18.532-16.4 35.917-33.95 36.081-23.453 0.164-39.361-15.58-39.361-39.034zM689.491 271.113c-0.164 20.829-16.729 37.229-37.557 37.229-20.664 0-36.246-16.236-36.081-37.557 0.164-21.65 15.58-36.573 37.557-36.409 20.829 0.164 36.246 15.908 36.081 36.737zM186.487 876.292c-3.608-4.1-7.543-8.036-10.824-12.464-25.748-33.784-39.689-71.998-40.017-114.475-0.493-59.534-0.656-119.232-0.984-178.765 0-0.82 0-1.641 0-2.459-0.493-13.777-0.493-13.777 13.613-13.941 3.444 0 6.888-0.328 10.168 0 8.528 0.984 13.941-2.459 17.877-9.841 16.073-30.341 32.636-60.518 48.709-90.859 1.969-3.773 2.625-8.364 2.625-12.629 0.164-37.065 0.164-73.966 0.164-111.031 0-8.036-0.493-8.364-8.528-8.364-63.798 0-127.597 0-191.395 0-7.709 0-8.364 0.493-8.201 8.036 0 37.393-0.164 74.787 0.493 112.179 0.164 7.872 2.296 16.4 6.068 23.289 14.596 26.897 30.177 53.138 45.102 79.871 3.608 6.395 8.693 9.512 16.073 9.348 5.577-0.164 11.152 0.164 16.729 0 5.74-0.164 7.709 2.296 7.709 7.872-0.164 20.829-0.164 41.657-0.164 62.322 0 40.838-0.82 81.675 0.493 122.348 1.969 60.846 22.797 114.148 68.718 155.641 33.784 30.504 73.966 47.891 118.74 54.614 64.454 9.512 124.316-3.28 177.617-41.166 33.457-23.616 56.418-55.762 70.194-94.302 2.952-8.201 2.459-9.348-6.068-10.661-9.675-1.477-19.353-2.459-29.029-3.28-3.936-0.328-7.053 0.984-8.364 5.74-15.417 57.238-52.809 93.154-109.064 109.72-41.986 12.464-83.152 9.184-123.004-8.528-52.482-23.289-81.511-64.782-89.384-121.036-4.921-35.753-1.641-71.014 15.089-103.488 26.241-51.006 69.045-77.902 125.793-84.134 15.252-1.641 30.177-2.459 45.429-0.328 5.905 0.82 7.543-1.148 6.395-7.216-0.164-1.148-0.656-2.296-0.656-3.444-1.477-12.464-1.477-12.793-13.613-13.448-52.154-2.296-99.879 9.841-141.045 43.297-25.585 20.829-42.804 47.561-52.645 78.723-14.432 45.757-13.448 91.515 3.28 136.452 3.773 10.005 9.348 19.353 14.104 29.029 0.984 1.969 1.804 4.1 2.788 6.232-0.164 0.493-0.656 0.82-0.984 1.148zM123.18 315.067c25.257 0 50.35 0 75.606 0 8.857 0 9.184-0.328 9.184-9.020 0-6.232 0-12.464 0-18.532 0-7.709-0.82-8.693-8.528-8.693-21.977 0-43.954 0-65.93 0.164-28.373 0-56.745 0-85.118 0.164-9.020 0-9.348 0.493-9.348 9.512 0 6.232 0 12.464 0 18.532 0 6.888 0.82 7.872 8.036 7.872 25.257 0 50.678 0 76.098 0 0 0 0 0 0 0zM653.9 527.782c-35.425 0-70.686 0-106.112 0-6.232 0-12.3 0.656-18.532 1.477-7.38 0.984-10.824 4.756-10.989 11.972-0.164 33.784-0.164 67.571 0 101.356 0 6.395 3.936 10.496 9.675 12.3 3.444 1.148 7.38 1.641 11.152 1.641 73.311 0 146.785 0 220.095 0 3.936 0 8.036 0.164 11.972-0.493 11.482-1.477 15.908-6.068 16.236-17.548 0.493-20.992 0.493-41.986 0.656-62.977 0-8.364-0.164-16.729-0.164-25.257-0.328-17.713-4.756-22.468-22.468-22.468-33.129-0.164-66.423 0-99.552 0-4.1 0-8.036 0-11.972 0z" />
<glyph unicode="&#xe93a;" glyph-name="tow-truck" horiz-adv-x="1376" d="M1077.87 195.794c37.997 0 68.8-30.803 68.8-68.8s-30.803-68.8-68.8-68.8-68.8 30.803-68.8 68.8 30.803 68.8 68.8 68.8zM1077.87 104.059c12.666 0 22.934 10.268 22.934 22.934s-10.268 22.934-22.934 22.934-22.934-10.268-22.934-22.934 10.268-22.934 22.934-22.934zM298.133 195.794c37.997 0 68.8-30.803 68.8-68.8s-30.803-68.8-68.8-68.8-68.8 30.803-68.8 68.8 30.803 68.8 68.8 68.8zM298.133 104.059c12.666 0 22.934 10.268 22.934 22.934s-10.268 22.934-22.934 22.934-22.934-10.268-22.934-22.934 10.268-22.934 22.934-22.934zM825.602 585.661h114.667c8.691 0.002 16.641-4.907 20.526-12.683l68.8-137.601c3.545-7.104 3.163-15.538-1.008-22.291-4.176-6.77-11.562-10.894-19.517-10.894h-183.467c-12.666 0-22.934 10.268-22.934 22.934v137.601c0 12.666 10.268 22.934 22.934 22.934zM848.535 448.060h123.428l-45.866 91.735h-77.56v-91.735zM153.309 572.176c31.132-20.752 39.548-62.811 18.796-93.943-12.568-18.853-33.727-30.174-56.385-30.171h-47.976c-37.398 0.038-67.708 30.346-67.745 67.745v23.989h45.866v-23.989c0.012-12.078 9.802-21.868 21.879-21.879h47.976c12.083-0.002 21.882 9.792 21.882 21.875 0 7.319-3.657 14.156-9.749 18.213l-48.848 32.566c-6.379 4.255-10.206 11.414-10.206 19.080v275.202c0.402 38.451 31.898 69.297 70.348 68.895 20.53-0.215 39.921-9.479 52.988-25.322l342.212-414.246 71.346 142.715c-37.238 7.559-61.295 43.877-53.735 81.116 6.498 31.998 34.592 55.023 67.244 55.109h137.601c37.997 0 68.8-30.803 68.8-68.8-0.077-7.831-1.503-15.59-4.219-22.934h145.169c34.779 0.112 66.599-19.55 82.056-50.706l90.632-181.174 144.481-28.92c49.259-10.050 86.227-51.016 91.183-101.045 0.574-1.646 0.941-3.356 1.101-5.091v-183.467c0-12.666-10.268-22.934-22.934-22.934h-116.503c-12.587-87.646-93.844-148.494-181.491-135.907-70.446 10.117-125.79 65.464-135.907 135.907h-391.704c-8.734-0.048-16.736 4.871-20.64 12.683l-62.333 124.918h-34.24c63.451-61.923 64.692-163.56 2.769-227.012s-163.56-64.692-227.012-2.769c-63.453 61.923-64.692 163.56-2.769 227.012 0.912 0.934 1.834 1.858 2.769 2.769h-34.24l-62.448-124.918c-3.885-7.774-11.834-12.685-20.526-12.683h-45.866c-12.666 0-22.934 10.268-22.934 22.934v252.268c0 12.666 10.268 22.934 22.934 22.934h345.813l-254.080 362.99v-167.254l38.642-25.755zM541.641 402.194h83.96l76.437 229.334h-45.729l-114.667-229.334zM673.942 402.194h36.992v110.975l-36.992-110.975zM1330.138 287.526h-91.735v-45.866h91.735v45.866zM1225.332 190.336c0.712-1.651 1.285-3.371 1.95-5.046 1.17-2.982 2.294-5.962 3.302-9.013 0.643-1.95 1.146-3.944 1.696-5.917 0.826-2.89 1.606-5.803 2.294-8.76 0.458-2.109 0.826-4.266 1.216-6.398 0.32-1.765 0.757-3.485 1.008-5.274h93.339v45.866h-107.398c0.872-1.811 1.789-3.6 2.592-5.459zM1077.87 12.324c63.327 0 114.667 51.34 114.667 114.667s-51.34 114.667-114.667 114.667-114.667-51.34-114.667-114.667c0.074-63.296 51.37-114.593 114.667-114.667zM756.802 379.26v-229.334h162.163c0.253 1.765 0.688 3.485 1.008 5.251 0.389 2.155 0.757 4.312 1.216 6.445 0.664 2.936 1.445 5.848 2.294 8.738 0.55 1.973 1.056 3.968 1.696 5.917 0.987 3.051 2.133 6.032 3.302 9.013 0.664 1.675 1.238 3.395 1.95 5.046 1.514 3.485 3.21 6.88 4.954 10.251 0.55 1.032 1.008 2.133 1.56 3.165 2.399 4.371 4.99 8.631 7.774 12.773 0.435 0.643 0.918 1.216 1.352 1.858 2.408 3.416 4.885 6.88 7.523 10.021 1.008 1.262 2.133 2.408 3.187 3.624 2.178 2.522 4.381 5 6.696 7.384 1.307 1.331 2.707 2.568 4.059 3.853 2.294 2.109 4.448 4.197 6.88 6.192 1.536 1.285 3.096 2.499 4.586 3.715 2.294 1.834 4.586 3.624 7.064 5.298 1.696 1.192 3.416 2.294 5.16 3.44 2.432 1.56 4.907 3.072 7.43 4.586 1.811 1.032 3.646 2.040 5.528 3.005 2.568 1.352 5.184 2.592 7.843 3.808 1.904 0.848 3.829 1.72 5.779 2.499 2.728 1.123 5.528 2.109 8.325 3.072 1.973 0.664 3.944 1.376 5.939 1.973 2.958 0.872 5.962 1.582 8.968 2.294 1.95 0.458 3.875 0.963 5.848 1.352 3.371 0.664 6.88 1.123 10.229 1.582 1.696 0.206 3.349 0.528 5.069 0.688 5.136 0.458 10.389 0.757 15.687 0.757s10.55-0.299 15.71-0.802c1.72-0.16 3.371-0.482 5.069-0.688 3.44-0.458 6.88-0.918 10.229-1.582 1.973-0.389 3.898-0.894 5.824-1.352 3.027-0.712 6.032-1.445 8.989-2.294 1.995-0.597 3.968-1.307 5.939-1.973 2.797-0.963 5.595-1.95 8.325-3.072 1.95-0.779 3.875-1.651 5.779-2.499 2.661-1.216 5.274-2.453 7.843-3.808 1.88-0.963 3.693-1.973 5.528-3.005 2.522-1.445 5-2.958 7.454-4.586 1.72-1.123 3.44-2.294 5.115-3.416 2.432-1.696 4.771-3.485 7.11-5.32 1.56-1.216 3.12-2.432 4.586-3.715 2.294-1.995 4.586-4.083 6.88-6.192 1.352-1.285 2.752-2.522 4.059-3.853l0.23-0.206v71.299c0 12.666 10.268 22.934 22.934 22.934h107.787c-9.228 19.639-27.178 33.775-48.436 38.139l-155.673 31.12c-6.951 1.376-12.876 5.889-16.054 12.224l-95.633 191.31c-7.716 15.532-23.57 25.351-40.913 25.342h-209.75v-252.268zM779.736 700.328c0 12.666-10.268 22.934-22.934 22.934h-137.601c-12.666 0-22.934-10.268-22.934-22.934s10.268-22.934 22.934-22.934h137.601c12.666 0 22.934 10.268 22.934 22.934zM183.465 126.993c0-63.327 51.34-114.667 114.667-114.667s114.667 51.34 114.667 114.667c0 63.327-51.34 114.667-114.667 114.667-63.296-0.074-114.593-51.37-114.667-114.667zM45.864 356.327v-206.401h8.76l62.333 124.918c3.904 7.811 11.906 12.73 20.64 12.683h321.068c8.734 0.048 16.736-4.871 20.64-12.683l62.333-124.918h169.294v206.401h-665.069zM118.977 839.006l305.772-436.813h65.613l21.558 43.16-355.055 429.794c-8.383 10.146-23.401 11.576-33.546 3.194-5.48-4.527-8.655-11.266-8.652-18.376v-7.293c-0.005-4.89 1.5-9.666 4.312-13.669zM894.402 356.327h-91.735v-45.866h91.735v45.866z" />
<glyph unicode="&#xe93b;" glyph-name="tuneup" horiz-adv-x="1015" d="M13.567 277.154c117.705 116.908 120.892 234.080 5.844 355.24 31.086 52.609 61.11 103.357 92.728 157.028 158.887-42.247 264.369 9.566 309.008 170.578 61.907 0 121.159 0 184.129 0 43.309-154.37 138.162-224.249 304.756-180.674 30.556-53.406 60.048-105.749 91.401-160.747-119.033-117.705-120.892-235.409-5.58-355.77-31.353-52.609-61.643-103.622-93.526-157.028-158.357 42.512-263.574-9.566-309.008-169.781-62.174 0-121.425 0-184.927 0-41.98 158.357-142.415 221.327-305.819 181.472-30.024 54.468-58.985 106.014-89.009 159.684zM840.686 448.53c-0.266 184.661-151.183 335.045-335.045 333.718-182.004-1.327-331.857-151.448-332.92-333.452-0.797-183.864 149.588-334.515 334.515-334.515 185.724 0 333.718 148.258 333.452 334.249zM448.25 279.546c36.136 37.198 72.004 62.704 130.723 66.424 111.328 7.175 174.298 91.931 154.37 205.651-38.26-44.372-71.208-82.367-99.902-115.313-51.014 47.029-94.323 87.414-142.679 132.052 38.792 36.933 74.13 70.675 117.172 111.858-23.647 0-38.525 1.595-53.14-0.266-93.26-11.956-149.323-77.85-154.903-186.786-1.327-27.632-9.566-47.029-29.758-64.565-34.541-30.024-68.019-61.11-108.936-98.043 41.183-45.7 74.928-82.897 111.061-122.752 31.619 29.758 54.734 49.951 75.99 71.738z" />
<glyph unicode="&#xe93c;" glyph-name="wrench" d="M1007.557 743.344l-168.637-168.64-147.518 52.699-52.695 147.514 168.64 168.64c-110.644 37.015-237.606 11.54-325.711-76.568-86.478-86.478-112.608-210.38-78.555-319.553-4.586-3.61-9.029-7.498-13.261-11.729l-346.347-346.344c-57.962-57.959-57.962-151.931 0-209.894s151.938-57.962 209.9 0l346.347 346.347c4.231 4.231 8.112 8.672 11.725 13.257 109.173-34.053 233.071-7.919 319.549 78.559 88.101 88.108 113.58 215.063 76.561 325.711z" />
<glyph unicode="&#xe93d;" glyph-name="92962" horiz-adv-x="1120" d="M861.345 419.87l-183.549 58.768c0.158 0.059 0.319 0.118 0.477 0.177 89.389 33.71 139.252 71.447 152.436 115.361 6.567 21.89 7.017 55.577-28.151 91.725-19.624 20.168-61.443 49.238-63.192 50.458-5.539 3.849-12.029 5.883-18.758 5.883-10.571 0-20.569-5.126-26.724-13.687l-112.611-156.411c-3.774 80.843-19.522 137.038-46.932 167.285-16.744 18.47-38.174 28.234-61.967 28.234-15.705 0-32.418-4.311-49.679-12.804-19.041-9.385-46.377-28.86-60.994-39.639-3.739-2.77-6.147-4.59-6.517-4.873-8.597-6.536-13.447-16.878-12.97-27.71 0.299-6.497 2.494-12.702 6.343-17.958l113.903-155.347c-43.796 12.045-81.552 18.135-112.584 18.135-41.412 0-72.1-11.189-91.201-33.249-17.284-19.929-23.651-46.618-18.936-79.314 4.034-27.907 20.772-75.938 21.473-77.95 4.606-13.207 17.095-22.084 31.078-22.084 3.53 0 7.017 0.564 10.303 1.659l183.041 60.352c-0.090-0.142-0.185-0.275-0.272-0.417-52.511-79.815-70.674-139.651-55.522-182.931 7.561-21.575 27.004-49.1 76.703-57.668 14.629-2.522 36.933-3.798 66.293-3.798 8.683 0 14.48 0.127 14.468 0.127 17.836 0.379 32.284 15.2 32.217 33.046l-0.828 192.721c58.997-73.845 109.762-109.738 155.198-109.738 19.207 0 55.194 7.163 80.461 55.143 13.223 25.101 27.864 73.645 28.466 75.666 5.162 17.079-4.468 35.408-21.468 40.853zM1084.364 848.659c0 38.749-31.413 70.162-70.162 70.162h-908.407c-38.749 0-70.162-31.413-70.162-70.162v-801.317c0-38.749 31.413-70.162 70.162-70.162h908.407c38.749 0 70.162 31.413 70.162 70.162v801.317zM149.882 867.138c27.091 0 49.052-21.961 49.052-49.052s-21.961-49.052-49.052-49.052c-27.091 0-49.048 21.961-49.048 49.052-0.004 27.095 21.957 49.052 49.048 49.052zM149.882 32.557c-27.091 0-49.048 21.961-49.048 49.052s21.961 49.052 49.048 49.052c27.091 0 49.052-21.961 49.052-49.052-0.004-27.095-21.965-49.052-49.052-49.052zM561.23 57.433c-216.723 0-392.408 175.689-392.408 392.412s175.689 392.412 392.408 392.412c216.723 0 392.408-175.689 392.408-392.412s-175.685-392.412-392.408-392.412zM972.584 32.557c-27.091 0-49.052 21.961-49.052 49.052s21.961 49.052 49.052 49.052c27.091 0 49.048-21.961 49.048-49.052 0.004-27.095-21.957-49.052-49.048-49.052zM972.584 769.041c-27.091 0-49.052 21.961-49.052 49.052s21.961 49.052 49.052 49.052c27.091 0 49.048-21.961 49.048-49.052 0.004-27.091-21.957-49.052-49.048-49.052z" />
<glyph unicode="&#xe93e;" glyph-name="arrowhead-pointing-to-the-right1" d="M780.994 493.002l-447.996 448c-12.669 12.669-27.653 18.998-44.997 18.998s-32.339-6.329-45.008-18.998c-12.669-12.669-18.998-27.663-18.998-44.997v-895.996c0-17.331 6.329-32.335 18.998-44.997 12.683-12.669 27.677-19.012 45.008-19.012 17.334 0 32.328 6.343 44.997 19.012l447.996 448c12.658 12.655 19.012 27.66 19.012 44.997 0 17.331-6.35 32.325-19.012 44.994z" />
<glyph unicode="&#xe93f;" glyph-name="call" d="M65.778 519.554c-16.676 45.047-28.756 91.055-25.11 139.934 2.3 30.096 13.609 55.785 35.656 76.868 23.962 22.622 46.581 46.391 70.16 69.393 30.67 30.289 69.2 30.096 99.87 0 18.976-18.595 37.764-37.571 56.552-56.552 18.209-18.209 36.611-36.423 54.825-54.825 32.011-32.396 32.203-70.16 0.193-102.364-23.002-23.002-45.814-46.198-69.2-68.82-6.134-5.941-6.708-10.927-3.452-18.402 15.335-36.804 37.571-69.586 62.493-100.256 50.225-61.726 106.964-116.551 174.631-158.915 14.568-9.008 30.477-15.721 45.624-23.962 7.86-4.219 13.035-2.874 19.362 3.641 22.81 23.576 46.198 46.772 69.586 69.967 30.67 30.289 69.007 30.477 99.682 0 37.571-37.19 74.954-74.568 112.138-112.138 31.244-31.437 31.056-69.967-0.384-101.597-21.276-21.469-43.705-41.79-63.64-64.219-29.136-32.589-65.94-43.324-107.731-41.024-60.959 3.26-117.125 23.576-171.371 49.839-120.385 58.466-223.129 139.553-309.198 241.917-63.64 75.908-116.165 158.336-150.669 251.499zM983.983 450.927c0 258.592-210.48 469.073-469.073 469.073v-89.329c209.328 0 379.744-170.416 379.744-379.744h89.329zM727.117 450.927h89.329c0 166.197-135.334 301.53-301.53 301.53v-89.329c56.739 0 110.031-22.043 150.095-62.107s62.107-93.355 62.107-150.095z" />
<glyph unicode="&#xe940;" glyph-name="triangle" horiz-adv-x="903" d="M452.48 743.024c140.85 0 281.702 0 422.4 0 11.256 0 25.097 1.369 27.531-12.168 1.826-10.039-0.608-24.033-6.693-31.79-140.699-177.509-282.157-354.561-423.465-531.765-15.515-19.317-25.858-19.317-41.373-0.152-141.307 177.204-282.767 354.256-423.465 531.916-6.085 7.758-8.67 21.751-6.845 31.79 2.434 13.537 16.275 12.321 27.531 12.321 141.459-0.152 282.918-0.152 424.377-0.152zM125.451 668.34c109.973-137.808 217.664-272.88 325.965-408.71 108.452 136.135 216.296 271.206 325.965 408.71-218.426 0-433.199 0-651.928 0z" />
</font>
</defs>
</svg>
